<?xml version="1.0" encoding="UTF-8"?>
<svg width="38px" height="33px" viewBox="0 0 38 33" version="1.1" xmlns="http://www.w3.org/2000/svg" xmlns:xlink="http://www.w3.org/1999/xlink">
    <!-- Generator: Sketch 52.1 (67048) - http://www.bohemiancoding.com/sketch -->
    <title>Shape</title>
    <desc>Created with Sketch.</desc>
    <defs>
        <linearGradient x1="0%" y1="27.4486681%" x2="82.2511148%" y2="100%" id="linearGradient-1">
            <stop stop-color="#F9637C" offset="0%"></stop>
            <stop stop-color="#FF7933" offset="100%"></stop>
        </linearGradient>
    </defs>
    <g id="Welcome" stroke="none" stroke-width="1" fill="none" fill-rule="evenodd">
        <g id="Desktop-HD-Copy" transform="translate(-242.000000, -43.000000)" fill="url(#linearGradient-1)" fill-rule="nonzero">
            <path d="M279.669678,61.8054712 C279.350246,60.8327951 279.101493,59.8389561 278.925303,58.8314865 C278.874878,58.5555152 278.828655,58.2781641 278.786634,57.9994331 L278.758419,57.8113784 C278.741611,57.6386992 278.713997,57.46602 278.692386,57.2939322 C278.612346,56.6126774 278.551115,55.9292543 278.508694,55.2436628 C278.429454,53.9923302 278.514697,52.719117 278.36162,51.4754721 C278.236757,50.4606863 277.977427,49.523961 277.499587,48.6114817 C275.992829,45.7297502 272.697172,44.2395053 269.631431,43.5677123 C267.931208,43.1914047 266.194033,43.0010158 264.451427,43 C262.144267,43.0047309 259.836507,43.0047309 257.528146,43 C255.761071,43.0021832 253.999876,43.2005576 252.277907,43.591367 C249.216368,44.2767614 245.914708,45.7959833 244.454774,48.7037349 C243.98954,49.6292243 243.741015,50.5635842 243.624556,51.5878319 C243.564526,52.1242018 243.580134,52.6629371 243.57173,53.2016725 C243.559724,53.9464007 243.529108,54.691326 243.479884,55.4364484 C243.433861,56.1153378 243.369828,56.7926501 243.287787,57.4683855 C243.281184,57.5227913 243.21395,58.0006158 243.249368,57.7699827 C243.284786,57.5393496 243.21395,58.0065295 243.204945,58.0567957 C243.156921,58.3674605 243.104095,58.6773368 243.046466,58.9864247 C242.854795,59.9746585 242.604236,60.95092 242.296089,61.9101432 C241.433455,64.6647308 242.509796,67.6464033 244.821558,69.3613677 C245.791646,70.0822441 246.93402,70.6209794 248.013363,71.163263 C249.213966,71.7688228 250.431979,72.3365351 251.660797,72.8817755 C252.907423,73.4337181 254.163655,73.9659484 255.429491,74.4784665 C256.459009,74.896563 257.498731,75.365517 258.565468,75.6884034 C259.402889,75.9397344 260.269124,75.9917747 261.137761,75.9988711 C262.00858,76.0138328 262.875442,75.8799764 263.699849,75.6032466 C264.73657,75.2413299 265.753481,74.8119975 266.770993,74.3980406 C269.283856,73.3714274 271.778711,72.2886344 274.195526,71.0579996 C275.355909,70.4666326 276.561315,69.8752656 277.574024,69.057405 C278.617949,68.2158897 279.381533,67.0047701 279.745916,65.7303742 C280.108949,64.4426644 280.082452,63.0785568 279.669678,61.8054712 Z M275.45796,66.8831962 L275.429146,66.907551 C275.49698,66.8433429 275.645855,66.7304252 275.45796,66.8861483 L275.45796,66.8831962 Z M276.902286,64.3903365 L276.902286,64.4086689 C276.901043,64.4180768 276.899036,64.4273714 276.896283,64.4364631 C276.837403,64.7315063 276.757158,65.0220187 276.656163,65.3057726 C276.644757,65.3371151 276.629749,65.3690489 276.616543,65.4009827 L276.616543,65.4051223 C276.561315,65.5086115 276.510289,65.6144662 276.45206,65.7161813 C276.385226,65.8344547 276.314191,65.9487857 276.238953,66.0591742 C276.205936,66.1076663 276.169918,66.155567 276.136902,66.2034678 C275.959169,66.4088681 275.767642,66.6022856 275.563613,66.7824161 C275.531797,66.809619 275.450757,66.8616593 275.416539,66.9006895 C275.296479,66.9787499 275.182422,67.0556276 275.05936,67.1283658 C272.902475,68.4116322 270.605721,69.4760929 268.305364,70.4831909 C267.73948,70.7299881 267.173795,70.9716601 266.608311,71.2082069 L266.449231,71.27444 L266.057234,71.4358832 C265.780295,71.5494256 265.502955,71.6619825 265.225216,71.7735537 C264.211306,72.1821883 263.16558,72.6866244 262.09104,72.9048388 C262.012401,72.9208057 261.933761,72.9344072 261.853921,72.9486 L261.823306,72.9486 C261.643215,72.9616101 261.463125,72.972846 261.278232,72.972846 C260.892838,72.972846 260.511646,72.9622014 260.126853,72.942095 L260.123251,72.942095 C260.057218,72.9261281 259.989384,72.9184403 259.920949,72.9048388 C259.740859,72.8681741 259.56377,72.8232302 259.387881,72.7705985 C259.093733,72.6824848 258.807389,72.5671683 258.521646,72.457174 C257.53555,72.0790934 256.555057,71.6881998 255.580167,71.2844932 C255.520137,71.2578817 255.460107,71.2360011 255.400076,71.2111637 L254.979865,71.0337536 C254.659704,70.8985277 254.340744,70.7617248 254.022984,70.6233449 C253.442292,70.370634 252.864602,70.114375 252.289913,69.8545677 C251.129529,69.3270684 249.979952,68.7741402 248.850184,68.1845473 C248.638877,68.0739617 248.429972,67.9616019 248.220467,67.8486508 C250.069997,65.2466359 253.993569,62.4370512 253.993569,62.4370512 C251.939937,61.8456842 247.663387,63.6233335 245.184741,64.797197 C245.158328,64.6954819 245.133715,64.592584 245.113905,64.4896861 C245.106702,64.45243 245.094095,64.3530804 245.091094,64.3388876 C245.068057,64.0705701 245.06585,63.8009115 245.08449,63.5322629 C245.086813,63.5002799 245.091225,63.4684774 245.097697,63.4370528 C248.049981,60.6818739 253.495919,57.2939322 253.495919,57.2939322 C251.821077,56.1951723 248.456986,57.3110819 246.262283,58.2543123 C246.445975,56.9119091 246.571438,55.5653664 246.622464,54.211136 C246.648277,53.5411171 246.639272,52.8705069 246.659682,52.2004881 C246.665685,52.0071111 246.683094,51.8155082 246.700503,51.6233139 C246.718512,51.5176563 246.738522,51.4127872 246.760533,51.3087066 C246.837972,50.9574346 246.988047,50.6298173 247.085296,50.2868244 C247.122915,50.2079755 247.162935,50.1312949 247.205357,50.0567827 C247.287798,49.9053927 247.377043,49.7575509 247.473091,49.6132574 C247.519915,49.5418991 247.568339,49.4719207 247.618364,49.4033221 C247.723417,49.2850487 247.819465,49.161453 247.92752,49.0485019 C248.164605,48.8020397 248.417233,48.5705529 248.6839,48.3554197 C248.740328,48.3152068 248.796156,48.2744025 248.852585,48.2371463 C248.993456,48.1401621 249.137128,48.0471204 249.283601,47.9580211 C249.587273,47.7739611 249.900233,47.6052044 250.221273,47.4524023 C250.360543,47.3855778 250.501013,47.3234843 250.641484,47.2613907 C250.725526,47.2288656 250.808968,47.1951576 250.893011,47.1632238 C251.213172,47.0449504 251.536734,46.9361389 251.863699,46.8367892 C252.510023,46.6440374 253.166525,46.4861056 253.830287,46.3636956 C254.087216,46.315992 254.345146,46.2730193 254.604076,46.2347776 C254.663598,46.2225604 254.723704,46.213284 254.784167,46.2069833 L254.799775,46.2069833 L254.933642,46.188651 L254.833992,46.2034351 C254.958254,46.188651 255.083117,46.1732754 255.20798,46.159674 C255.921113,46.0788236 256.638054,46.0348051 257.35586,46.0277991 C259.230602,46.0236596 261.102343,46.0277991 262.975885,46.0277991 C263.612805,46.0277991 264.250926,46.0177459 264.887846,46.0277991 C265.23362,46.0343042 265.579394,46.0508625 265.923967,46.0751085 C266.164088,46.0916668 266.405609,46.111379 266.648531,46.1342452 C266.778597,46.1472553 266.908462,46.1618423 267.038127,46.1780064 L267.169593,46.1939733 C268.448236,46.3849848 269.714273,46.6511 270.929884,47.0893029 C271.078158,47.142526 271.224632,47.2004799 271.371106,47.2572512 C271.450345,47.2921418 271.529585,47.3264411 271.608225,47.3625145 C271.931187,47.5109476 272.247546,47.6729822 272.5537,47.8521664 C272.859854,48.0313506 273.124587,48.2265017 273.410331,48.4163305 C272.933091,48.0993578 273.425338,48.4334802 273.5472,48.5387435 C273.683668,48.6570169 273.815735,48.779627 273.943399,48.9065738 C274.063459,49.0248472 274.178717,49.1492314 274.289173,49.2797264 C274.336596,49.3353149 274.378618,49.3979998 274.431444,49.4512228 L274.387022,49.4074617 C274.398889,49.4212557 274.409723,49.4358813 274.419438,49.4512228 C274.617359,49.7359795 274.792764,50.0353047 274.944102,50.3465525 L274.950105,50.3589712 C274.973517,50.4181079 274.997529,50.4772446 275.01914,50.5399295 C275.084773,50.7240418 275.141801,50.9107166 275.190226,51.0999541 C275.234648,51.2773642 275.269465,51.4547743 275.301882,51.6321844 C275.312687,51.74277 275.323493,51.8521729 275.330696,51.9633499 C275.411137,53.281507 275.375119,54.6067605 275.480171,55.925509 C275.58181,57.2360963 275.753535,58.5404919 275.99463,59.8332622 C276.167203,60.7722047 276.403859,61.6986133 276.702986,62.6061822 C276.786959,62.8685839 276.855507,63.1355361 276.908289,63.4057104 C276.913092,63.4648471 276.917294,63.5334457 276.916694,63.5239838 C276.927499,63.6765565 276.931301,63.8291292 276.928099,63.9817019 C276.923697,64.1216587 276.915093,64.2588559 276.902286,64.3932933 L276.902286,64.3903365 Z M276.91327,63.3258758 C276.921938,63.3587556 276.926959,63.3922298 276.92827,63.4258758 C276.918849,63.3939552 276.913817,63.3612448 276.91327,63.3283758 L276.91327,63.3258758 Z" id="Shape"></path>
        </g>
    </g>
</svg>