<svg xmlns="http://www.w3.org/2000/svg" viewBox="0 0 236.36 233.98"><defs><style>.cls-1{fill:#d9e1e4;}.cls-15,.cls-16,.cls-2,.cls-43{fill:#94b5bf;}.cls-3{fill:#fbe481;}.cls-18,.cls-19,.cls-4{fill:#f8a547;}.cls-15,.cls-32,.cls-4,.cls-61,.cls-64{opacity:0.5;}.cls-5{fill:#fca100;}.cls-37,.cls-6{fill:#fff;}.cls-14,.cls-7{fill:#3e3126;}.cls-10,.cls-8,.cls-9{fill:#ffb320;}.cls-11,.cls-9{opacity:0.75;}.cls-10,.cls-12,.cls-16,.cls-55,.cls-65{opacity:0.35;}.cls-11,.cls-12{fill:#e2ab63;}.cls-13{fill:#ffefae;}.cls-14{opacity:0.3;}.cls-17{fill:#fbd947;}.cls-19,.cls-20,.cls-27{opacity:0.4;}.cls-21,.cls-27,.cls-28,.cls-31,.cls-32,.cls-39{fill:#c9d2df;}.cls-22,.cls-48{opacity:0.1;}.cls-23{fill:#4df58c;}.cls-24{fill:#42caf8;}.cls-25{fill:#ff7769;}.cls-26{fill:#ffe56b;}.cls-28{opacity:0.2;}.cls-29{fill:#f78a11;}.cls-30{fill:#ff9e3e;}.cls-31,.cls-37,.cls-42,.cls-43,.cls-47,.cls-60{opacity:0.45;}.cls-33{fill:#c3c6e3;}.cls-34{fill:#57a8b2;}.cls-35{fill:#8f98d8;}.cls-36{fill:#ff9c01;}.cls-38{fill:#f27c00;}.cls-39,.cls-50,.cls-67{opacity:0.6;}.cls-40{fill:#6ae184;}.cls-41,.cls-42{fill:#389d9c;}.cls-44{fill:#c0ffcc;}.cls-45{fill:#f2563d;}.cls-46,.cls-47,.cls-48,.cls-50{fill:#e52b17;}.cls-49{fill:#ffeeeb;}.cls-51{fill:#ffede1;}.cls-52{fill:#ffa878;}.cls-53,.cls-54,.cls-55{fill:#ea5706;}.cls-54{opacity:0.25;}.cls-56{fill:#ffd297;}.cls-57,.cls-60{fill:#f9a948;}.cls-58{fill:#dd872a;}.cls-59{fill:#ffebd2;}.cls-61{fill:#9ce5e5;}.cls-62{fill:#cfb0ff;}.cls-63{fill:#7c6887;}.cls-64,.cls-65,.cls-66{fill:#3d3344;}.cls-67{fill:#8647ea;}.cls-68{fill:#b29fbf;}</style></defs><g id="Layer_2" data-name="Layer 2"><g id="Layer_1-2" data-name="Layer 1"><path class="cls-1" d="M22.23,220.71v2a1.77,1.77,0,0,0,1.09,1.64c.19.08.41.17.65.25l.13.29v1.55a1.35,1.35,0,0,0,.83,1.26l.43.16,0,.38a4.88,4.88,0,1,0,9.76,0l.17-.43.28-.11a1.36,1.36,0,0,0,.84-1.26V224.9l0,.11v-.33c.3-.11.59-.22.82-.32a1.75,1.75,0,0,0,1.09-1.64v-2Z"/><path class="cls-2" d="M30.27,230.13a14,14,0,0,1-4.66-.79.48.48,0,1,1,.35-.9,12.48,12.48,0,0,0,8.2,0,.49.49,0,0,1,.37.9A11.37,11.37,0,0,1,30.27,230.13Z"/><path class="cls-2" d="M30.42,223.51a24.82,24.82,0,0,1-8.16-1.39.48.48,0,0,1-.27-.62.47.47,0,0,1,.62-.28c.08,0,7.77,2.92,14.9,0a.48.48,0,0,1,.63.27.49.49,0,0,1-.26.63A19.8,19.8,0,0,1,30.42,223.51Z"/><path class="cls-2" d="M36.23,224.62l0,.33,0-.11v1.08l-.2.07a19.08,19.08,0,0,1-6.16,1.17,18.92,18.92,0,0,1-6-1.11v-1.21l-.06-.14a18.54,18.54,0,0,0,6.05,1.12Z"/><path class="cls-3" d="M39.53,219.49v-3.87s-.46-7.17,2.87-12.53,6.36-8.59,6.36-16.21S42.19,168.7,30.08,168.7s-18.67,10.57-18.67,18.18,3,10.86,6.35,16.21a18.45,18.45,0,0,1,2.87,10.43v6a.9.9,0,0,0,.52.82,22,22,0,0,0,17.86,0A.89.89,0,0,0,39.53,219.49Z"/><path class="cls-4" d="M42.07,203.33a18.45,18.45,0,0,0-2.87,10.43v6a.91.91,0,0,1-.52.82,21.26,21.26,0,0,1-6.55,1.79c0-.71-.06-1.58-.11-2.61v-6a18.35,18.35,0,0,1,2.87-10.43c3.33-5.35,6.35-8.59,6.35-16.21,0-6.82-5.27-16-15.08-17.84a18.85,18.85,0,0,1,3.59-.34c12.11,0,18.68,10.57,18.68,18.18S45.4,198,42.07,203.33Z"/><path class="cls-5" d="M41.91,203.15a15.9,15.9,0,0,0-2.23,8.25c0,1.55,0,2.44,0,2.44l-.66,5.71a.93.93,0,0,1-.52.82A21.39,21.39,0,0,1,32,222.16c0-.07,0-.12,0-.19a19.51,19.51,0,0,0,5.22-1.2c.33-.15.51.09.51-.26v-6.93a18.38,18.38,0,0,1,2.86-10.43c3.33-5.35,6.37-8.59,6.37-16.21s-6.36-17.82-18.08-18.16c.24,0,.5,0,.75,0,12.11,0,18.68,10.57,18.68,18.18S45.24,197.8,41.91,203.15Z"/><path class="cls-6" d="M17.77,203.15a18.48,18.48,0,0,1,2.86,10.43v6a.9.9,0,0,0,.53.82,21.28,21.28,0,0,0,6.54,1.79c0-.07,0-.12,0-.19a20.87,20.87,0,0,1-5.2-1.6c-.33-.15-.52.49-.52.14l.82-3.82a18.33,18.33,0,0,0-1.62-12.54c-.18-.33-.37-.66-.58-1-3.33-5.35-6.37-8.59-6.37-16.21s4.88-17.82,16.6-18.16c-.24,0-.5,0-.75,0a18.19,18.19,0,0,0-14.51,6.9,18.69,18.69,0,0,0-4.17,11.28C11.41,194.56,14.44,197.8,17.77,203.15Z"/><path class="cls-7" d="M15.68,200.41a.56.56,0,0,1-.46-.25c-2.47-3.81-4.36-7.21-4.36-13.28a18.49,18.49,0,0,1,2.47-8.81.54.54,0,1,1,.95.53A17.39,17.39,0,0,0,12,186.88c0,5.78,1.74,8.91,4.19,12.69a.55.55,0,0,1-.16.75A.58.58,0,0,1,15.68,200.41Z"/><path class="cls-7" d="M39.59,211.9h-.05a.55.55,0,0,1-.49-.59,18.13,18.13,0,0,1,.38-2.4,19.92,19.92,0,0,1,2.51-6.11c.52-.82,1-1.6,1.51-2.35,2.66-4.07,4.76-7.29,4.76-13.57,0-7.39-6.3-17.63-18.13-17.63a17.51,17.51,0,0,0-11.93,4.5.55.55,0,0,1-.77,0,.54.54,0,0,1,0-.77,18.58,18.58,0,0,1,12.66-4.78c12.54,0,19.22,10.87,19.22,18.72C49.3,193.49,47,197,44.36,201c-.48.75-1,1.52-1.5,2.34a19.05,19.05,0,0,0-2.37,5.77,17.7,17.7,0,0,0-.36,2.26A.55.55,0,0,1,39.59,211.9Z"/><path class="cls-7" d="M30.19,222.77a22.92,22.92,0,0,1-9.27-2,1.43,1.43,0,0,1-.84-1.31V215a.55.55,0,0,1,.55-.54.54.54,0,0,1,.54.54v4.5a.35.35,0,0,0,.2.32,21.4,21.4,0,0,0,17.42,0,.35.35,0,0,0,.2-.32v-6.64a.55.55,0,1,1,1.09,0v6.64a1.46,1.46,0,0,1-.84,1.32A21.79,21.79,0,0,1,30.19,222.77Z"/><path class="cls-7" d="M20.32,210.18a.54.54,0,0,1-.53-.44,18.47,18.47,0,0,0-1.45-4.44.55.55,0,0,1,1-.46,20,20,0,0,1,1.53,4.69.55.55,0,0,1-.43.64Z"/><ellipse class="cls-8" cx="40.86" cy="193.7" rx="2.29" ry="1.63" transform="translate(-155.01 164.97) rotate(-69.74)"/><circle class="cls-8" cx="42.7" cy="189.31" r="1"/><circle class="cls-9" cx="40.04" cy="190.05" r="0.4"/><circle class="cls-8" cx="38.41" cy="195.23" r="0.66"/><circle class="cls-10" cx="41.8" cy="186.25" r="0.74"/><circle class="cls-10" cx="39.4" cy="187.7" r="0.63"/><circle class="cls-10" cx="37.85" cy="191.56" r="0.53"/><circle class="cls-11" cx="36.18" cy="180.89" r="0.4"/><circle class="cls-12" cx="34.42" cy="177.09" r="0.74"/><circle class="cls-12" cx="33.98" cy="179.87" r="0.63"/><circle class="cls-12" cx="35.92" cy="183.54" r="0.53"/><path class="cls-7" d="M31.36,222.1a.43.43,0,0,1-.43-.43V206.39H28.8V221.5a.43.43,0,0,1-.85,0V206.39H25.89a2.9,2.9,0,0,1-2.9-2.9V203a2.91,2.91,0,0,1,5.81,0v2.59h2.13V203a2.91,2.91,0,0,1,5.81,0v.54a2.9,2.9,0,0,1-2.9,2.9H31.78v15.28A.42.42,0,0,1,31.36,222.1Zm.42-16.56h2.06a2.05,2.05,0,0,0,2-2V203a2.06,2.06,0,0,0-4.11,0Zm-5.89-4.64a2.05,2.05,0,0,0-2.05,2v.54a2.05,2.05,0,0,0,2.05,2H28V203A2.06,2.06,0,0,0,25.89,200.9Z"/><ellipse class="cls-8" cx="39.91" cy="179.46" rx="2.79" ry="3.63" transform="translate(-44.05 15.91) rotate(-14.63)"/><path class="cls-6" d="M26.55,225.44h-.11a20.38,20.38,0,0,1-3.21-1,1.75,1.75,0,0,1-1.16-2,.49.49,0,0,1,.53-.43.48.48,0,0,1,.44.53c-.08.79.47.94.49,1a22.62,22.62,0,0,0,3.12.93.5.5,0,0,1,.37.58A.48.48,0,0,1,26.55,225.44Z"/><path class="cls-7" d="M27,226H27a20.1,20.1,0,0,1-4-1.18,2.17,2.17,0,0,1-1.36-2v-2a.43.43,0,1,1,.85,0v2A1.35,1.35,0,0,0,23.3,224a20.55,20.55,0,0,0,3.82,1.13.42.42,0,0,1,.34.49A.43.43,0,0,1,27,226Z"/><path class="cls-7" d="M29.9,226.31a.43.43,0,1,1,0-.85,19.19,19.19,0,0,0,7-1.43,1.35,1.35,0,0,0,.82-1.25v-2a.43.43,0,1,1,.85,0v2a2.17,2.17,0,0,1-1.35,2A19.93,19.93,0,0,1,29.9,226.31Z"/><path class="cls-7" d="M30.22,229.31a15.5,15.5,0,0,1-5.64-1.15,1.8,1.8,0,0,1-1.1-1.66V225a.43.43,0,1,1,.85,0v1.54a.93.93,0,0,0,.58.87,14.45,14.45,0,0,0,5.31,1.09.43.43,0,1,1,0,.85Z"/><path class="cls-7" d="M29.94,229.31a.43.43,0,1,1,0-.85,14.57,14.57,0,0,0,5.32-1.09.93.93,0,0,0,.57-.87V225a.43.43,0,1,1,.85,0v1.54a1.79,1.79,0,0,1-1.1,1.66A15.5,15.5,0,0,1,29.94,229.31Z"/><path class="cls-7" d="M30.08,233.62a5.31,5.31,0,0,1-5.31-5.31.43.43,0,1,1,.85,0,4.46,4.46,0,0,0,8.92,0,.43.43,0,1,1,.85,0A5.31,5.31,0,0,1,30.08,233.62Z"/><circle class="cls-7" cx="18.01" cy="203.44" r="0.6"/><circle class="cls-7" cx="20.63" cy="211.75" r="0.6"/><circle class="cls-7" cx="14.87" cy="176.92" r="0.6"/><path class="cls-7" d="M16.06,191.9l-.12,0a.31.31,0,0,1-.17-.39h0l1.65-3.9a.3.3,0,0,1,.39-.16.3.3,0,0,1,.16.4l-1.65,3.89A.29.29,0,0,1,16.06,191.9Z"/><path class="cls-7" d="M18.25,190l-.12,0a.3.3,0,0,1-.16-.39v0l.88-2.08a.3.3,0,0,1,.4-.16.31.31,0,0,1,.16.4l-.88,2.08A.32.32,0,0,1,18.25,190Z"/><ellipse class="cls-13" cx="18.84" cy="182.49" rx="3.13" ry="2.12" transform="translate(-141.6 93.51) rotate(-55.09)"/><ellipse class="cls-13" cx="23.88" cy="179.13" rx="1.56" ry="1.06" transform="translate(-136.69 96.21) rotate(-55.09)"/><path class="cls-1" d="M114.85,186.36a15.87,15.87,0,1,0,15.86,15.86A15.87,15.87,0,0,0,114.85,186.36Zm0,27.14a11.27,11.27,0,1,1,11.26-11.28A11.26,11.26,0,0,1,114.85,213.5Z"/><path class="cls-1" d="M128.69,225.66h0A6.39,6.39,0,0,0,119.8,229h0a6.39,6.39,0,0,1-12-.44h0a6.39,6.39,0,0,0-8.64-3.94h0a6.4,6.4,0,0,1-8.21-8.82h0a6.4,6.4,0,0,0-3.31-8.9h0a6.39,6.39,0,0,1,.43-12h0A6.39,6.39,0,0,0,92,186.2h0A6.4,6.4,0,0,1,100.8,178h0a6.39,6.39,0,0,0,8.89-3.31h0a6.39,6.39,0,0,1,12,.43h0a6.41,6.41,0,0,0,8.64,3.95h0a6.39,6.39,0,0,1,8.21,8.82h0a6.39,6.39,0,0,0,3.31,8.89h0a6.4,6.4,0,0,1-.43,12h0a6.38,6.38,0,0,0-3.94,8.63h0A6.4,6.4,0,0,1,128.69,225.66Z"/><path class="cls-6" d="M120.92,174.11a6.48,6.48,0,0,0-3.1-.78,6.29,6.29,0,0,0-5.94,4,6.39,6.39,0,0,1-8.89,3.32,6.41,6.41,0,0,0-9.37,5.64,6.59,6.59,0,0,0,.54,2.57,6.37,6.37,0,0,1-3.94,8.62,6.29,6.29,0,0,0-4.47,6.12,6.47,6.47,0,0,0,.77,3.07,6.23,6.23,0,0,1-3.26-5.56A6.3,6.3,0,0,1,87.73,195a6.42,6.42,0,0,0,4.47-6.12,7,7,0,0,0-.86-2.48,6,6,0,0,1-.21-2.62,6.42,6.42,0,0,1,9.37-5.63,6.35,6.35,0,0,0,2.93.73,6.43,6.43,0,0,0,6-4,6.39,6.39,0,0,1,11.52-.77Z"/><path class="cls-2" d="M145,203.1a6.31,6.31,0,0,1-4.47,6.12,6.38,6.38,0,0,0-4.48,6.09,6.61,6.61,0,0,0,.53,2.54,6.37,6.37,0,0,1-8.82,8.21,6.41,6.41,0,0,0-8.9,3.32,6.39,6.39,0,0,1-12-.38c31.37-9.13,29.91-29.87,25.28-50.09a6.42,6.42,0,0,1,5.52,9.37,6.23,6.23,0,0,0-.73,2.93,6.43,6.43,0,0,0,4,6A6.24,6.24,0,0,1,145,203.1Z"/><circle class="cls-7" cx="91.42" cy="184.02" r="0.69"/><circle class="cls-7" cx="107.57" cy="177.34" r="0.69"/><circle class="cls-7" cx="89.46" cy="208.73" r="0.69"/><circle class="cls-2" cx="114.45" cy="202.09" r="15.87"/><path class="cls-7" d="M114.45,218.59a16.5,16.5,0,1,1,16.49-16.5A16.52,16.52,0,0,1,114.45,218.59Zm0-31.73a15.24,15.24,0,1,0,15.23,15.23A15.25,15.25,0,0,0,114.45,186.86Z"/><path class="cls-2" d="M114.43,221.41a19.25,19.25,0,1,1,19.19-19.24A19.24,19.24,0,0,1,114.43,221.41Zm0-37.13a17.89,17.89,0,1,0,17.83,17.89A17.88,17.88,0,0,0,114.43,184.28Z"/><path class="cls-14" d="M114.45,218a15.87,15.87,0,1,1,15.87-15.87A15.89,15.89,0,0,1,114.45,218Zm0-30.1a14.24,14.24,0,1,0,14.23,14.23A14.25,14.25,0,0,0,114.45,187.86Z"/><circle class="cls-6" cx="114.38" cy="201.89" r="11.26"/><path class="cls-7" d="M87.3,207.67a.69.69,0,0,1-.2,0,6.93,6.93,0,0,1,.47-13,5.87,5.87,0,0,0,3.62-7.92.53.53,0,0,1,.28-.7.52.52,0,0,1,.69.28,6.93,6.93,0,0,1-4.27,9.35,5.87,5.87,0,0,0-.4,11,.52.52,0,0,1-.19,1Z"/><path class="cls-7" d="M113.57,233.81h-.26A6.85,6.85,0,0,1,107,229,5.86,5.86,0,0,0,99,225.35a6.93,6.93,0,0,1-8.89-9.55,5.77,5.77,0,0,0,.34-4.62.55.55,0,0,1,.33-.68.54.54,0,0,1,.67.33,6.84,6.84,0,0,1-.4,5.46,5.87,5.87,0,0,0,7.53,8.09,6.92,6.92,0,0,1,9.35,4.27,5.74,5.74,0,0,0,5.38,4.1,5.81,5.81,0,0,0,5.67-3.7,6.92,6.92,0,0,1,9.63-3.59,5.87,5.87,0,0,0,8.09-7.53,6.92,6.92,0,0,1,4.27-9.35,5.87,5.87,0,0,0,.4-11.05,6.93,6.93,0,0,1-3.59-9.63,5.87,5.87,0,0,0-7.53-8.09,6.93,6.93,0,0,1-9.35-4.27,5.87,5.87,0,0,0-11.05-.4.53.53,0,0,1-1-.39,6.92,6.92,0,0,1,13,.47,5.86,5.86,0,0,0,7.92,3.62,6.93,6.93,0,0,1,8.89,9.55,5.88,5.88,0,0,0,3,8.16,6.92,6.92,0,0,1-.47,13,5.86,5.86,0,0,0-3.62,7.92,6.93,6.93,0,0,1-9.55,8.89,5.85,5.85,0,0,0-8.16,3A6.85,6.85,0,0,1,113.57,233.81Z"/><path class="cls-7" d="M91.54,182.2a.63.63,0,0,1-.19,0,.52.52,0,0,1-.3-.68,7,7,0,0,1,4.1-4.07,6.76,6.76,0,0,1,5.59.37,5.9,5.9,0,0,0,4.36.43.51.51,0,0,1,.65.35.53.53,0,0,1-.36.66,6.86,6.86,0,0,1-5.14-.5,5.73,5.73,0,0,0-4.73-.32A6.09,6.09,0,0,0,92,181.86.55.55,0,0,1,91.54,182.2Z"/><ellipse class="cls-2" cx="113.27" cy="227.11" rx="2.59" ry="2.19"/><circle class="cls-15" cx="114.88" cy="223.23" r="0.83"/><circle class="cls-15" cx="130.63" cy="184.25" r="0.83"/><circle class="cls-2" cx="120.78" cy="223.86" r="1.79"/><circle class="cls-2" cx="135.03" cy="194.65" r="1.79"/><circle class="cls-15" cx="118.05" cy="223.19" r="0.5"/><circle class="cls-15" cx="131.58" cy="186.14" r="0.5"/><circle class="cls-16" cx="132.97" cy="191.62" r="0.5"/><circle class="cls-2" cx="133.54" cy="188.57" r="1.73"/><path class="cls-7" d="M114.45,213.8a11.71,11.71,0,1,1,9.32-4.62.44.44,0,0,1-.62.08.44.44,0,0,1-.09-.62,10.81,10.81,0,1,0-2.53,2.4.45.45,0,1,1,.5.74A11.66,11.66,0,0,1,114.45,213.8Z"/><path class="cls-7" d="M90.34,203.37l-.13,0a.33.33,0,0,1-.18-.43h0l1.79-4.24a.33.33,0,0,1,.43-.18.34.34,0,0,1,.18.44l-1.8,4.23A.32.32,0,0,1,90.34,203.37Z"/><path class="cls-7" d="M92.72,201.32l-.12,0a.33.33,0,0,1-.18-.43h0l1-2.27a.33.33,0,0,1,.43-.18.34.34,0,0,1,.18.44l-1,2.26A.33.33,0,0,1,92.72,201.32Z"/><path class="cls-7" d="M114.45,221.58a19.49,19.49,0,1,1,19.48-19.49A19.51,19.51,0,0,1,114.45,221.58Zm0-38.08A18.6,18.6,0,1,0,133,202.09,18.61,18.61,0,0,0,114.45,183.5Z"/><ellipse class="cls-17" cx="197.25" cy="204.51" rx="28.82" ry="28.9"/><path class="cls-3" d="M196.84,175.62c-.17,10.39-3.26,33.33-26.54,39.12a28.63,28.63,0,0,1-1.87-10.23,25.72,25.72,0,0,1,.27-3.84,28.86,28.86,0,0,1,22.63-24.45A27.76,27.76,0,0,1,196.84,175.62Z"/><path class="cls-4" d="M225.56,204.17a28.86,28.86,0,0,1-28.82,28.9,28.47,28.47,0,0,1-10.27-1.9c24.06-8.89,29.61-29.81,28.4-49.46A28.86,28.86,0,0,1,225.56,204.17Z"/><path class="cls-7" d="M179.12,199.06a.22.22,0,0,1-.11,0,.3.3,0,0,1-.17-.39h0l1.63-3.86a.29.29,0,0,1,.39-.16.29.29,0,0,1,.16.39l-1.63,3.86A.28.28,0,0,1,179.12,199.06Z"/><path class="cls-7" d="M181.29,197.2a.23.23,0,0,1-.11,0,.3.3,0,0,1-.17-.39h0l.87-2.07a.31.31,0,0,1,.39-.16.3.3,0,0,1,.16.4l-.87,2.06A.3.3,0,0,1,181.29,197.2Z"/><path class="cls-18" d="M197.25,233.48a29,29,0,1,1,28.89-29A29,29,0,0,1,197.25,233.48Zm0-55.64a26.67,26.67,0,1,0,26.59,26.67A26.66,26.66,0,0,0,197.25,177.84Z"/><path class="cls-7" d="M168.43,205.09a.58.58,0,0,1-.58-.58,29.48,29.48,0,0,1,.6-5.94.58.58,0,1,1,1.13.23,28.73,28.73,0,0,0-.58,5.71A.57.57,0,0,1,168.43,205.09Z"/><path class="cls-7" d="M197.25,234a29.31,29.31,0,0,1-29-24.49.57.57,0,0,1,.47-.67.56.56,0,0,1,.66.47,28.31,28.31,0,1,0,1.77-15.68.58.58,0,0,1-.75.31.57.57,0,0,1-.31-.76A29.42,29.42,0,1,1,197.25,234Z"/><circle class="cls-7" cx="168.36" cy="206.9" r="0.6"/><path class="cls-18" d="M197.25,227.9a23.39,23.39,0,1,1,23.33-23.39A23.39,23.39,0,0,1,197.25,227.9Zm0-44.48a21.09,21.09,0,1,0,21,21.09A21.08,21.08,0,0,0,197.25,183.42Z"/><path class="cls-7" d="M181.13,221.35a.48.48,0,0,1-.32-.13,23.32,23.32,0,0,1-7-16.71,23.59,23.59,0,0,1,15.17-22,.46.46,0,0,1,.33.86,22.67,22.67,0,0,0-14.58,21.12,22.4,22.4,0,0,0,6.69,16.05.46.46,0,0,1-.32.79Z"/><path class="cls-7" d="M197.25,228a23.28,23.28,0,0,1-12.09-3.37.46.46,0,1,1,.48-.78A22.53,22.53,0,1,0,197.25,182a23.94,23.94,0,0,0-3.6.28.46.46,0,1,1-.15-.9A23.47,23.47,0,1,1,197.25,228Z"/><circle class="cls-7" cx="191.4" cy="182.22" r="0.6"/><circle class="cls-7" cx="183.11" cy="222.78" r="0.6"/><path class="cls-18" d="M197.25,227.9a23.39,23.39,0,1,1,23.33-23.39A23.39,23.39,0,0,1,197.25,227.9Zm0-44.48a21.09,21.09,0,1,0,21,21.09A21.08,21.08,0,0,0,197.25,183.42Z"/><path class="cls-7" d="M181.13,221.35a.48.48,0,0,1-.32-.13,23.32,23.32,0,0,1-7-16.71,23.59,23.59,0,0,1,15.17-22,.46.46,0,0,1,.33.86,22.67,22.67,0,0,0-14.58,21.12,22.4,22.4,0,0,0,6.69,16.05.46.46,0,0,1-.32.79Z"/><path class="cls-7" d="M197.25,228a23.28,23.28,0,0,1-12.09-3.37.46.46,0,1,1,.48-.78A22.53,22.53,0,1,0,197.25,182a23.94,23.94,0,0,0-3.6.28.46.46,0,1,1-.15-.9A23.47,23.47,0,1,1,197.25,228Z"/><circle class="cls-7" cx="191.4" cy="182.22" r="0.6"/><circle class="cls-7" cx="183.11" cy="222.78" r="0.6"/><circle class="cls-7" cx="169.71" cy="195.88" r="0.6"/><ellipse class="cls-6" cx="183.51" cy="183.53" rx="1.15" ry="0.7" transform="translate(-75.14 162.03) rotate(-40.25)"/><path class="cls-6" d="M176.3,191.23a.53.53,0,0,1-.3-.09.56.56,0,0,1-.19-.79,25.08,25.08,0,0,1,5.21-5.69.57.57,0,0,1,.81.09.58.58,0,0,1-.08.81,24.67,24.67,0,0,0-5,5.39A.58.58,0,0,1,176.3,191.23Z"/><circle class="cls-19" cx="205.76" cy="216.82" r="0.51"/><ellipse class="cls-18" cx="206.07" cy="222.87" rx="1.77" ry="1.77"/><circle class="cls-18" cx="207.25" cy="219.1" r="0.59"/><circle class="cls-18" cx="201.98" cy="223.65" r="0.59"/><circle class="cls-18" cx="210.47" cy="220.98" r="0.73"/><circle class="cls-19" cx="202.45" cy="221.43" r="0.51"/><circle class="cls-19" cx="204" cy="219.94" r="0.53"/><circle class="cls-19" cx="203.94" cy="217.75" r="0.2"/><circle class="cls-18" cx="204.65" cy="230.21" r="1.05"/><circle class="cls-18" cx="205.37" cy="228.41" r="0.35"/><circle class="cls-18" cx="202.23" cy="231.12" r="0.35"/><circle class="cls-18" cx="207.29" cy="229.53" r="0.43"/><circle class="cls-19" cx="202.52" cy="229.8" r="0.3"/><circle class="cls-19" cx="203.44" cy="228.91" r="0.32"/><circle class="cls-19" cx="203.4" cy="227.6" r="0.12"/><circle class="cls-18" cx="198.33" cy="225.56" r="0.65"/><ellipse class="cls-13" cx="185.69" cy="190.74" rx="3.31" ry="2.24" transform="matrix(0.57, -0.82, 0.82, 0.57, -76.99, 233.87)"/><path class="cls-6" d="M204.26,207a5.9,5.9,0,0,0-1.32-1.88,8.56,8.56,0,0,0-1.81-1.3,14.28,14.28,0,0,0-1.93-.89c-.89-.33-1.71-.67-2.49-1a6,6,0,0,1-1.89-1.2,2.34,2.34,0,0,1-.72-1.76,2.83,2.83,0,0,1,.33-1.41,2.11,2.11,0,0,1,1-.9,4.46,4.46,0,0,1,1.81-.31,3.46,3.46,0,0,1,1.85.47,4.78,4.78,0,0,1,1.37,1.25,11.82,11.82,0,0,1,1.06,1.69l2.92-1.8a8.65,8.65,0,0,0-1.49-2.24,7.56,7.56,0,0,0-2.39-1.77,7,7,0,0,0-1.89-.57l0-3.53h-3l.06,3.51a7.39,7.39,0,0,0-2.23.65,6.3,6.3,0,0,0-2.47,2,4.73,4.73,0,0,0-.9,2.81,5.77,5.77,0,0,0,.57,2.68,6.28,6.28,0,0,0,1.44,1.88,8.3,8.3,0,0,0,1.87,1.26,14.2,14.2,0,0,0,1.82.77c.83.32,1.63.66,2.37,1a6.09,6.09,0,0,1,1.83,1.31,2.88,2.88,0,0,1,.7,2,3.4,3.4,0,0,1-.36,1.62,2.3,2.3,0,0,1-1.1,1,4.43,4.43,0,0,1-1.87.35,4.69,4.69,0,0,1-2.28-.54,6,6,0,0,1-1.81-1.55,11.9,11.9,0,0,1-1.51-2.46l-2.87,1.86a9.76,9.76,0,0,0,1.92,3,9.13,9.13,0,0,0,2.87,2.1,7.83,7.83,0,0,0,2,.63l-.06,3.36h3l-.06-3.29a8.5,8.5,0,0,0,2.67-.7,5.67,5.67,0,0,0,2.51-2.22,6.39,6.39,0,0,0,.89-3.38A6.14,6.14,0,0,0,204.26,207Z"/><ellipse class="cls-17" cx="214.17" cy="185.82" rx="12.57" ry="12.61"/><path class="cls-3" d="M214,173.22c-.08,4.53-1.42,14.54-11.58,17.07a12.48,12.48,0,0,1-.82-4.46,11.66,11.66,0,0,1,.12-1.68A12.51,12.51,0,0,1,214,173.22Z"/><path class="cls-4" d="M226.53,185.67A12.59,12.59,0,0,1,214,198.28a12.38,12.38,0,0,1-4.48-.83c10.5-3.88,12.92-13,12.39-21.57A12.56,12.56,0,0,1,226.53,185.67Z"/><ellipse class="cls-6" cx="208.18" cy="176.67" rx="0.5" ry="0.3" transform="translate(-64.86 176.35) rotate(-40.25)"/><path class="cls-7" d="M206.27,183.45h-.05a.12.12,0,0,1-.07-.17h0l.71-1.68a.13.13,0,0,1,.24.1l-.71,1.68A.14.14,0,0,1,206.27,183.45Z"/><path class="cls-7" d="M207.22,182.63h-.06a.14.14,0,0,1-.07-.17h0l.38-.9a.12.12,0,0,1,.17-.07.14.14,0,0,1,.07.17l-.38.9A.13.13,0,0,1,207.22,182.63Z"/><path class="cls-18" d="M214.17,198.46a12.64,12.64,0,1,1,12.61-12.64A12.63,12.63,0,0,1,214.17,198.46Zm0-24.27a11.64,11.64,0,1,0,11.61,11.63A11.63,11.63,0,0,0,214.17,174.19Z"/><path class="cls-7" d="M201.6,186.08a.26.26,0,0,1-.25-.26,13.23,13.23,0,0,1,.26-2.59.26.26,0,0,1,.3-.19.24.24,0,0,1,.19.29,13.06,13.06,0,0,0-.25,2.49A.26.26,0,0,1,201.6,186.08Z"/><path class="cls-7" d="M214.17,198.68A12.79,12.79,0,0,1,201.53,188a.26.26,0,0,1,.21-.29.26.26,0,0,1,.29.21,12.35,12.35,0,1,0,.77-6.84.25.25,0,0,1-.33.13.25.25,0,0,1-.14-.33,12.84,12.84,0,1,1,11.84,17.81Z"/><circle class="cls-7" cx="201.57" cy="186.87" r="0.26"/><path class="cls-18" d="M214.17,196a10.21,10.21,0,1,1,10.18-10.21A10.2,10.2,0,0,1,214.17,196Zm0-19.41a9.2,9.2,0,1,0,9.18,9.2A9.2,9.2,0,0,0,214.17,176.62Z"/><path class="cls-7" d="M207.14,193.17a.2.2,0,0,1-.14-.06,10.25,10.25,0,0,1,3.58-16.87.2.2,0,0,1,.26.11.2.2,0,0,1-.12.26,9.86,9.86,0,0,0-3.44,16.22.2.2,0,0,1-.14.34Z"/><path class="cls-7" d="M214.17,196.06a10.1,10.1,0,0,1-5.27-1.47.19.19,0,0,1-.06-.27.19.19,0,0,1,.27-.07A9.83,9.83,0,1,0,214.17,176a10.15,10.15,0,0,0-1.56.12.2.2,0,0,1-.07-.4,11.08,11.08,0,0,1,1.63-.13,10.24,10.24,0,0,1,0,20.48Z"/><circle class="cls-7" cx="211.63" cy="176.1" r="0.26"/><circle class="cls-7" cx="208.01" cy="193.8" r="0.26"/><path class="cls-18" d="M214.17,196a10.21,10.21,0,1,1,10.18-10.21A10.2,10.2,0,0,1,214.17,196Zm0-19.41a9.2,9.2,0,1,0,9.18,9.2A9.2,9.2,0,0,0,214.17,176.62Z"/><path class="cls-7" d="M207.14,193.17a.2.2,0,0,1-.14-.06,10.25,10.25,0,0,1,3.58-16.87.2.2,0,0,1,.26.11.2.2,0,0,1-.12.26,9.86,9.86,0,0,0-3.44,16.22.2.2,0,0,1-.14.34Z"/><path class="cls-7" d="M214.17,196.06a10.1,10.1,0,0,1-5.27-1.47.19.19,0,0,1-.06-.27.19.19,0,0,1,.27-.07A9.83,9.83,0,1,0,214.17,176a10.15,10.15,0,0,0-1.56.12.2.2,0,0,1-.07-.4,11.08,11.08,0,0,1,1.63-.13,10.24,10.24,0,0,1,0,20.48Z"/><circle class="cls-7" cx="211.63" cy="176.1" r="0.26"/><circle class="cls-7" cx="208.01" cy="193.8" r="0.26"/><circle class="cls-7" cx="202.16" cy="182.06" r="0.26"/><path class="cls-6" d="M205,180a.23.23,0,0,1-.14,0,.26.26,0,0,1-.08-.35,11.1,11.1,0,0,1,2.28-2.48.25.25,0,0,1,.31.4,10.72,10.72,0,0,0-2.16,2.35A.25.25,0,0,1,205,180Z"/><circle class="cls-19" cx="217.89" cy="191.2" r="0.22"/><circle class="cls-18" cx="218.02" cy="193.83" r="0.77"/><circle class="cls-18" cx="218.54" cy="192.19" r="0.26"/><circle class="cls-18" cx="216.24" cy="194.18" r="0.26"/><circle class="cls-18" cx="219.95" cy="193.01" r="0.32"/><circle class="cls-19" cx="216.45" cy="193.21" r="0.22"/><circle class="cls-19" cx="217.12" cy="192.56" r="0.23"/><circle class="cls-19" cx="217.1" cy="191.6" r="0.09"/><circle class="cls-18" cx="217.4" cy="197.04" r="0.46"/><circle class="cls-18" cx="217.72" cy="196.25" r="0.15"/><circle class="cls-18" cx="216.35" cy="197.43" r="0.15"/><circle class="cls-18" cx="218.56" cy="196.74" r="0.19"/><circle class="cls-19" cx="216.47" cy="196.86" r="0.13"/><circle class="cls-19" cx="216.88" cy="196.47" r="0.14"/><circle class="cls-19" cx="216.86" cy="195.9" r="0.05"/><circle class="cls-18" cx="214.65" cy="195.01" r="0.28"/><ellipse class="cls-13" cx="209.13" cy="179.81" rx="1.45" ry="0.98" transform="translate(-58 248.43) rotate(-55.09)"/><path class="cls-6" d="M217.24,186.91a2.7,2.7,0,0,0-.58-.82,4.07,4.07,0,0,0-.79-.57,6.1,6.1,0,0,0-.84-.38c-.39-.15-.75-.3-1.09-.45a2.63,2.63,0,0,1-.82-.52,1,1,0,0,1-.32-.77,1.17,1.17,0,0,1,.15-.61.87.87,0,0,1,.45-.39,1.8,1.8,0,0,1,.79-.14,1.62,1.62,0,0,1,.81.2,2.09,2.09,0,0,1,.6.55,5.84,5.84,0,0,1,.46.74l1.27-.79a3.88,3.88,0,0,0-.65-1,3.4,3.4,0,0,0-1-.77,3.09,3.09,0,0,0-.83-.25l0-1.54h-1.29l0,1.53a3.32,3.32,0,0,0-1,.29,2.71,2.71,0,0,0-1.08.88,2.09,2.09,0,0,0-.39,1.23,2.66,2.66,0,0,0,.24,1.17,2.84,2.84,0,0,0,.63.81,4,4,0,0,0,.82.56,6.75,6.75,0,0,0,.79.33c.37.14.71.29,1,.44a2.68,2.68,0,0,1,.79.57,1.25,1.25,0,0,1,.31.88,1.58,1.58,0,0,1-.15.71,1.07,1.07,0,0,1-.49.45,1.89,1.89,0,0,1-.81.15,2,2,0,0,1-1-.24,2.59,2.59,0,0,1-.79-.67,5.72,5.72,0,0,1-.66-1.08l-1.25.82a4.78,4.78,0,0,0,.84,1.32,4.14,4.14,0,0,0,1.25.91,3.35,3.35,0,0,0,.88.28l0,1.47h1.29l0-1.44a3.59,3.59,0,0,0,1.16-.31,2.42,2.42,0,0,0,1.1-1,2.74,2.74,0,0,0,.39-1.47A2.81,2.81,0,0,0,217.24,186.91Z"/><path class="cls-6" d="M164.56,132.7a15.93,15.93,0,0,1-1.5-4.57c-1.22-6.74,1.56-16,6.13-21.15l2.08-1.84a14.3,14.3,0,0,1,1.17-.88,30.45,30.45,0,0,1,18.88-4.78A55.12,55.12,0,0,1,211.46,105a19.86,19.86,0,0,1,5.48,3.41,1.76,1.76,0,0,0,.34.27l5.11,3.29.2.13c4.83,3.63,7.7,9.44,8.71,15.39a31,31,0,0,1-4.4,21.83,2.45,2.45,0,0,1-.58.62l-5.4,4.24a7.57,7.57,0,0,1-8,.73,4.61,4.61,0,0,1-2.61-3.33,9.23,9.23,0,0,1,.35-2.75,7,7,0,0,0-.23-3.87,4,4,0,0,0-2.81-2.5,5.49,5.49,0,0,0-3.8,1c-1.88,1.13-3.52,2.61-5.4,3.76a21.17,21.17,0,0,1-15.72,2.12c-5.09-1.2-9-4-13-7.36a2.56,2.56,0,0,1-.66-.9l-3.05-4.5Z"/><g class="cls-20"><path class="cls-21" d="M226.93,149.35a2.63,2.63,0,0,1-.58.62l-5.4,4.25a7.61,7.61,0,0,1-8,.72,4.6,4.6,0,0,1-2.61-3.33,9.19,9.19,0,0,1,.35-2.75,6.93,6.93,0,0,0-.23-3.86,4,4,0,0,0-2.81-2.51,5.58,5.58,0,0,0-3.8,1c-1.88,1.13-3.52,2.62-5.39,3.77a21.25,21.25,0,0,1-15.73,2.12c-5.09-1.2-9-4-13-7.37a2.65,2.65,0,0,1-.66-.89l-2.63-3.86A57.51,57.51,0,0,1,180,132.07c6.53-1.46,13.63-1.25,19.6,1.8,1.9.95,3.65,2.17,5.5,3.22a28.73,28.73,0,0,0,17.26,3.68,24.66,24.66,0,0,0,9-2.87A30.21,30.21,0,0,1,226.93,149.35Z"/></g><g class="cls-22"><path class="cls-21" d="M231.07,138.05a24.94,24.94,0,0,1-9,2.85,28.91,28.91,0,0,1-17.27-3.68c-1.85-1.05-3.59-2.27-5.5-3.23-6-3-13.07-3.26-19.6-1.79a57.92,57.92,0,0,0-13.52,5.18l2.63,3.86a2.6,2.6,0,0,0,.66.9,39.76,39.76,0,0,0,7.81,5.48,38.43,38.43,0,0,1-7.83-5.49,2.52,2.52,0,0,1-.67-.88l-3-4.51-1.44-3.91a15.83,15.83,0,0,1-1.5-4.57,41.16,41.16,0,0,1,24-10.78,58.75,58.75,0,0,1,9.38,0c12.44.87,25.2,4.36,35.06,11.72A31.4,31.4,0,0,1,231.07,138.05Z"/></g><path class="cls-7" d="M178.14,148.36a.5.5,0,0,1-.24-.06c-9.93-5.12-13.54-12.43-14.82-17.67a24.59,24.59,0,0,1-.39-10.26.53.53,0,0,1,1,.23c0,.17-3.63,17.34,14.65,26.76a.54.54,0,0,1,.23.72A.52.52,0,0,1,178.14,148.36Z"/><path class="cls-7" d="M164.55,115.68a.45.45,0,0,1-.16,0A.53.53,0,0,1,164,115c.05-.16,5.22-16.18,24.91-16.18h.76a.53.53,0,0,1,0,1.06h-.75c-18.88,0-23.68,14.81-23.88,15.44A.53.53,0,0,1,164.55,115.68Z"/><path class="cls-7" d="M228.66,120.42a.53.53,0,0,1-.46-.26c-9.72-16.22-31.87-19.63-32.1-19.66a.52.52,0,0,1-.44-.6.53.53,0,0,1,.6-.45c.22,0,22.86,3.52,32.85,20.17a.52.52,0,0,1-.18.72A.56.56,0,0,1,228.66,120.42Z"/><path class="cls-7" d="M217.8,156a.52.52,0,0,1-.5-.37.53.53,0,0,1,.35-.66c8.17-2.58,11.34-9.33,12.56-14.54a33.31,33.31,0,0,0,.06-14.65.53.53,0,0,1,.36-.66.52.52,0,0,1,.65.36c1.14,4,3.42,25.2-13.32,30.5A.41.41,0,0,1,217.8,156Z"/><path class="cls-7" d="M215.47,156.27h0a5.55,5.55,0,0,1-5.28-3.86.56.56,0,1,1,1.06-.36,4.44,4.44,0,0,0,4.28,3.1.56.56,0,0,1,0,1.12Z"/><circle class="cls-7" cx="181.01" cy="148.92" r="0.61"/><circle class="cls-7" cx="163.93" cy="117.75" r="0.61"/><circle class="cls-7" cx="230.28" cy="123.2" r="0.61"/><circle class="cls-7" cx="192.76" cy="99.71" r="0.61"/><path class="cls-23" d="M194,106.68A3.78,3.78,0,0,1,200.6,109a3.65,3.65,0,0,1-.13,1.1,4.28,4.28,0,0,1-5.07,3.25,3.7,3.7,0,0,1-2.33-2.06,4.25,4.25,0,0,1,.91-4.6Z"/><path class="cls-24" d="M182.53,105.73a3.77,3.77,0,0,1,6.61,2.32,3.32,3.32,0,0,1-.12,1.09,4.29,4.29,0,0,1-5.08,3.26,3.73,3.73,0,0,1-2.33-2.06,4.25,4.25,0,0,1,.92-4.61Z"/><path class="cls-25" d="M204.19,110.36a3.77,3.77,0,0,1,6.61,2.31,3.35,3.35,0,0,1-.12,1.1A4.29,4.29,0,0,1,205.6,117a3.75,3.75,0,0,1-2.33-2.06,4.26,4.26,0,0,1,.92-4.6Z"/><path class="cls-26" d="M170.72,115.3c3.12-3.82,8.21-2.12,8.13,2.94a6.22,6.22,0,0,1-.24,1.62c-1,3.6-4,5.9-6.58,5.15a4.36,4.36,0,0,1-2.78-2.87,7.47,7.47,0,0,1,1.47-6.84Z"/><circle class="cls-7" cx="204.43" cy="110.04" r="0.61"/><path class="cls-7" d="M206.86,117.87a4,4,0,0,1-1.19-.17,4.31,4.31,0,0,1-2.67-2.23,4.91,4.91,0,0,1-.31-3.58.51.51,0,1,1,1,.29,3.84,3.84,0,0,0,.24,2.83,3.29,3.29,0,0,0,4.68,1.35,3.84,3.84,0,0,0,1.73-2.26,3.89,3.89,0,0,0-.25-2.83,3.37,3.37,0,0,0-2-1.72.51.51,0,0,1-.35-.63.52.52,0,0,1,.63-.35,4.33,4.33,0,0,1,2.67,2.24,5,5,0,0,1-1.87,6.43A4.38,4.38,0,0,1,206.86,117.87Z"/><path class="cls-7" d="M185.26,113.45a4.37,4.37,0,0,1-1.18-.17,4.63,4.63,0,0,1-3-5.81,4.75,4.75,0,0,1,3.83-3.45.51.51,0,0,1,.15,1,3.73,3.73,0,0,0-3,2.72,3.47,3.47,0,1,0,6.65,1.93,3.8,3.8,0,0,0-.83-3.66.51.51,0,1,1,.74-.7A4.78,4.78,0,0,1,189.7,110,4.71,4.71,0,0,1,185.26,113.45Z"/><path class="cls-7" d="M196.52,114.27a4.39,4.39,0,0,1-1.19-.17,4.33,4.33,0,0,1-2.66-2.23,4.87,4.87,0,0,1-.32-3.58.51.51,0,0,1,1,.28,3.89,3.89,0,0,0,.24,2.83,3.34,3.34,0,0,0,2,1.72,3.29,3.29,0,0,0,2.64-.36,3.92,3.92,0,0,0,1.48-5.09,3.28,3.28,0,0,0-2-1.72,3.35,3.35,0,0,0-2.14.11.51.51,0,1,1-.38-.94A4.22,4.22,0,0,1,198,105a4.32,4.32,0,0,1,2.67,2.23,5,5,0,0,1-1.86,6.44A4.41,4.41,0,0,1,196.52,114.27Z"/><ellipse class="cls-6" cx="220.33" cy="140.72" rx="7.34" ry="5.58" transform="translate(23.87 313.21) rotate(-73.85)"/><path class="cls-7" d="M219.4,148.87a4.94,4.94,0,0,1-1.37-.2c-3.25-.94-4.91-5.11-3.7-9.29s4.84-6.82,8.09-5.88,4.92,5.11,3.7,9.3a9.15,9.15,0,0,1-3.21,4.82A5.93,5.93,0,0,1,219.4,148.87Zm1.66-14.44c-2.36,0-4.75,2.14-5.65,5.26-1,3.59.27,7.13,2.93,7.9a4.42,4.42,0,0,0,3.9-.87,8,8,0,0,0,2.81-4.24h0c1-3.59-.28-7.13-2.94-7.9A3.81,3.81,0,0,0,221.06,134.43Z"/><ellipse class="cls-27" cx="189.96" cy="131.65" rx="3.23" ry="4.68" transform="translate(10.66 277.49) rotate(-73.85)"/><circle class="cls-27" cx="199.37" cy="133.98" r="1.46"/><circle class="cls-28" cx="196.57" cy="130.01" r="0.95"/><circle class="cls-27" cx="177.06" cy="134.11" r="2.72"/><circle class="cls-28" cx="183.1" cy="128.94" r="0.89"/><ellipse class="cls-6" cx="183.7" cy="106.87" rx="0.85" ry="0.59" transform="translate(-25.83 142.43) rotate(-39.82)"/><circle class="cls-6" cx="185.33" cy="106.62" r="0.25"/><ellipse class="cls-6" cx="194.94" cy="107.31" rx="0.85" ry="0.59" transform="translate(-23.5 149.74) rotate(-39.82)"/><circle class="cls-6" cx="196.58" cy="107.06" r="0.25"/><ellipse class="cls-6" cx="206.22" cy="110.53" rx="0.85" ry="0.59" transform="translate(-22.95 157.7) rotate(-39.82)"/><circle class="cls-6" cx="207.86" cy="110.28" r="0.25"/><path class="cls-29" d="M214.74,117.63a3.77,3.77,0,0,1,6.61,2.32,3.32,3.32,0,0,1-.12,1.09,4.27,4.27,0,0,1-5.08,3.25,3.73,3.73,0,0,1-2.33-2.05,4.27,4.27,0,0,1,.92-4.61Z"/><circle class="cls-7" cx="214.98" cy="117.31" r="0.61"/><path class="cls-7" d="M217.41,125.15a4.39,4.39,0,0,1-1.19-.17,4.62,4.62,0,0,1-3-5.81.5.5,0,1,1,1,.28A3.62,3.62,0,0,0,216.5,124a3.37,3.37,0,0,0,2.64-.36,3.88,3.88,0,0,0,1.72-2.27,3.6,3.6,0,0,0-2.28-4.54.51.51,0,0,1-.35-.63.5.5,0,0,1,.63-.35,4.62,4.62,0,0,1,3,5.81,4.86,4.86,0,0,1-2.18,2.85A4.39,4.39,0,0,1,217.41,125.15Z"/><ellipse class="cls-6" cx="216.77" cy="117.8" rx="0.85" ry="0.59" transform="translate(-25.16 166.15) rotate(-39.82)"/><circle class="cls-6" cx="218.4" cy="117.55" r="0.25"/><ellipse class="cls-6" cx="173.14" cy="114.99" rx="0.85" ry="0.59" transform="translate(-33.48 137.56) rotate(-39.82)"/><circle class="cls-6" cx="174.78" cy="114.74" r="0.25"/><path class="cls-8" d="M178.69,120.29c-1,3.58-4,5.89-6.59,5.14a3.93,3.93,0,0,1-2.23-1.75c0-.1.1-.19.15-.29a8.14,8.14,0,0,1,3-3.36c1.53-.79,3.34-.69,5-.83a7.11,7.11,0,0,0,.79-.1A5.4,5.4,0,0,1,178.69,120.29Z"/><path class="cls-7" d="M173.39,126a4,4,0,0,1-1.19-.17c-2.84-.82-4.3-4.43-3.25-8a8.07,8.07,0,0,1,1.9-3.37.48.48,0,0,1,.69,0,.49.49,0,0,1,0,.69,7.3,7.3,0,0,0-1.67,3c-.89,3.1.27,6.16,2.59,6.84s4.95-1.3,5.84-4.4a6.9,6.9,0,0,0-.11-4.39,3.88,3.88,0,0,0-2.47-2.45.5.5,0,0,1-.34-.6.5.5,0,0,1,.61-.34,4.86,4.86,0,0,1,3.11,3,7.84,7.84,0,0,1,.14,5C178.35,123.89,175.88,126,173.39,126Z"/><path class="cls-30" d="M207.27,142.39c0,.12,0,.24-.05.36a3.84,3.84,0,0,0-1.17-.1l-.36,0a4.65,4.65,0,0,0-1.68.44,2.5,2.5,0,0,0-.41.19,8.86,8.86,0,0,0-1.88,1.15c-1.17.81-2.27,1.7-3.44,2.49l-.11.08a22,22,0,0,1-7.06,2.7c0-.41-.07-.81-.09-1.21-.21-3.39,1.37-7,4.42-8.53a25.17,25.17,0,0,1,4.13-1.22,25.41,25.41,0,0,1,3.26-.89,4.94,4.94,0,0,1,2.06.11h0c.33.18.67.34,1,.5a.87.87,0,0,1,.11.09A4.37,4.37,0,0,1,207.27,142.39Z"/><path class="cls-7" d="M187.67,150.49a16.67,16.67,0,0,1-3.16-.26.53.53,0,0,1-.41-.62.55.55,0,0,1,.63-.42,21.83,21.83,0,0,0,17.12-5,11,11,0,0,1,2.92-1.82c.89-.35,3.15-1,4.78.23,1.38,1.07,1.87,3.21,1.48,6.36a.54.54,0,0,1-.59.46.53.53,0,0,1-.46-.59c.34-2.72,0-4.59-1.08-5.4-1.2-.93-3-.36-3.74-.07a9.54,9.54,0,0,0-2.63,1.64A23.06,23.06,0,0,1,187.67,150.49Z"/><circle class="cls-30" cx="195.5" cy="140.55" r="2.22"/><circle class="cls-30" cx="204.23" cy="137.67" r="1.11"/><circle class="cls-30" cx="191.33" cy="146.67" r="1.15"/><circle class="cls-30" cx="188.31" cy="142.59" r="0.71"/><circle class="cls-30" cx="190.97" cy="139.75" r="0.62"/><path class="cls-7" d="M209.27,134.74a.22.22,0,0,1-.11,0,.29.29,0,0,1-.16-.38h0l1.6-3.77a.29.29,0,0,1,.38-.16.31.31,0,0,1,.16.39l-1.6,3.77A.28.28,0,0,1,209.27,134.74Z"/><path class="cls-7" d="M211.4,132.92l-.12,0a.29.29,0,0,1-.16-.38h0l.85-2a.29.29,0,0,1,.38-.16.31.31,0,0,1,.16.39l-.86,2A.27.27,0,0,1,211.4,132.92Z"/><rect class="cls-6" x="49.93" y="100.57" width="12.73" height="47.06" rx="2.55"/><polygon class="cls-31" points="55.9 118.96 55.9 100.06 18.9 100.06 18.9 147.36 55.9 147.36 55.9 118.96"/><rect class="cls-21" x="38.49" y="131.89" width="21.02" height="1.64" transform="translate(98 265.41) rotate(-180)"/><rect class="cls-21" x="38.49" y="135.62" width="21.02" height="1.64" transform="translate(98 272.88) rotate(-180)"/><rect class="cls-21" x="38.49" y="139.35" width="21.02" height="1.64" transform="translate(98 280.34) rotate(-180)"/><rect class="cls-21" x="38.49" y="118.05" width="21.02" height="1.64" transform="translate(98 237.75) rotate(-180)"/><rect class="cls-21" x="38.49" y="121.78" width="21.02" height="1.64" transform="translate(98 245.21) rotate(-180)"/><rect class="cls-21" x="38.49" y="125.52" width="21.02" height="1.64" transform="translate(98 252.67) rotate(-180)"/><rect class="cls-21" x="38.49" y="103.79" width="21.02" height="1.64" transform="translate(98 209.21) rotate(-180)"/><rect class="cls-21" x="38.49" y="103.67" width="21.02" height="9.22" transform="translate(98 216.56) rotate(-180)"/><path class="cls-7" d="M61.7,147.71a.35.35,0,1,1,0-.7.62.62,0,0,0,.62-.62V123.51a.35.35,0,1,1,.69,0v22.88A1.32,1.32,0,0,1,61.7,147.71Z"/><path class="cls-7" d="M59.33,147.71H54.92a.35.35,0,1,1,0-.7h4.41a.35.35,0,0,1,0,.7Z"/><path class="cls-7" d="M50.21,147.71H26.63a1.32,1.32,0,0,1-1.32-1.32V102.08a2.38,2.38,0,0,1,2.38-2.37h33A2.37,2.37,0,0,1,63,102.08V119a.35.35,0,1,1-.69,0V102.08a1.68,1.68,0,0,0-1.68-1.67H27.69A1.68,1.68,0,0,0,26,102.08v44.31a.62.62,0,0,0,.62.62H50.21a.35.35,0,1,1,0,.7Z"/><rect class="cls-6" x="3.51" y="94.64" width="49.34" height="55.71"/><path class="cls-28" d="M52.84,110.84v38.37a1.46,1.46,0,0,1-1.47,1.46H7.82C33.94,143.09,47.24,122.47,52.84,110.84Z"/><rect class="cls-32" x="3.75" y="111.98" width="49.09" height="0.21"/><rect class="cls-32" x="3.75" y="126.85" width="49.09" height="0.21"/><rect class="cls-32" x="3.75" y="142.75" width="49.09" height="0.21"/><path class="cls-33" d="M4.49,89.51h47.6a.74.74,0,0,1,.74.74v4.08a0,0,0,0,1,0,0H3.75a0,0,0,0,1,0,0V90.25A.74.74,0,0,1,4.49,89.51Z"/><circle class="cls-34" cx="8.16" cy="91.35" r="0.89"/><circle class="cls-34" cx="10.87" cy="91.35" r="0.89"/><circle class="cls-34" cx="13.58" cy="91.35" r="0.89"/><path class="cls-28" d="M52.84,95.57H3.75a.39.39,0,0,1-.39-.39.38.38,0,0,1,.39-.38H52.84a.38.38,0,0,1,.38.38A.39.39,0,0,1,52.84,95.57Z"/><circle class="cls-35" cx="8.16" cy="91.35" r="0.89"/><circle class="cls-35" cx="10.87" cy="91.35" r="0.89"/><circle class="cls-35" cx="13.58" cy="91.35" r="0.89"/><path class="cls-7" d="M8.16,92.42a1.07,1.07,0,1,1,1.06-1.07A1.06,1.06,0,0,1,8.16,92.42Zm0-1.78a.72.72,0,1,0,.71.71A.71.71,0,0,0,8.16,90.64Z"/><path class="cls-7" d="M10.87,92.42a1.07,1.07,0,1,1,1.06-1.07A1.06,1.06,0,0,1,10.87,92.42Zm0-1.78a.72.72,0,0,0,0,1.43.72.72,0,0,0,0-1.43Z"/><path class="cls-7" d="M13.58,92.42a1.07,1.07,0,1,1,1.06-1.07A1.07,1.07,0,0,1,13.58,92.42Zm0-1.78a.72.72,0,1,0,.71.71A.71.71,0,0,0,13.58,90.64Z"/><rect class="cls-21" x="31.36" y="105" width="4.54" height="0.82"/><rect class="cls-21" x="31.51" y="119.7" width="4.54" height="0.82"/><rect class="cls-21" x="31.51" y="134.47" width="4.54" height="0.82"/><rect class="cls-21" x="8.04" y="115.15" width="21.02" height="1.64" rx="0.29"/><rect class="cls-21" x="8.04" y="118.88" width="21.02" height="1.64" rx="0.29"/><rect class="cls-21" x="8.04" y="122.61" width="21.02" height="1.64" rx="0.29"/><rect class="cls-21" x="8.04" y="99.09" width="21.02" height="1.64" rx="0.29"/><rect class="cls-21" x="8.04" y="102.82" width="21.02" height="1.64" rx="0.29"/><rect class="cls-21" x="8.04" y="106.56" width="21.02" height="1.64" rx="0.29"/><rect class="cls-21" x="8.04" y="129.85" width="21.02" height="1.64" rx="0.29"/><rect class="cls-21" x="8.04" y="133.59" width="21.02" height="1.64" rx="0.29"/><rect class="cls-21" x="8.04" y="137.32" width="21.02" height="1.64" rx="0.29"/><polygon class="cls-36" points="32.57 100.25 32.9 100.92 33.63 101.03 33.1 101.54 33.23 102.28 32.57 101.93 31.91 102.28 32.04 101.54 31.51 101.03 32.24 100.92 32.57 100.25"/><polygon class="cls-36" points="35.31 100.25 35.64 100.92 36.38 101.03 35.84 101.54 35.97 102.28 35.31 101.93 34.65 102.28 34.78 101.54 34.25 101.03 34.98 100.92 35.31 100.25"/><polygon class="cls-36" points="38.05 100.25 38.38 100.92 39.11 101.03 38.58 101.54 38.71 102.28 38.05 101.93 37.39 102.28 37.52 101.54 36.99 101.03 37.72 100.92 38.05 100.25"/><polygon class="cls-36" points="40.79 100.25 41.12 100.92 41.85 101.03 41.32 101.54 41.45 102.28 40.79 101.93 40.13 102.28 40.26 101.54 39.73 101.03 40.46 100.92 40.79 100.25"/><polygon class="cls-36" points="43.53 100.25 43.86 100.92 44.59 101.03 44.06 101.54 44.19 102.28 43.53 101.93 42.87 102.28 43 101.54 42.47 101.03 43.2 100.92 43.53 100.25"/><polygon class="cls-36" points="32.57 114.96 32.9 115.63 33.63 115.73 33.1 116.25 33.23 116.98 32.57 116.64 31.91 116.98 32.04 116.25 31.51 115.73 32.24 115.63 32.57 114.96"/><polygon class="cls-36" points="35.31 114.96 35.64 115.63 36.38 115.73 35.84 116.25 35.97 116.98 35.31 116.64 34.65 116.98 34.78 116.25 34.25 115.73 34.98 115.63 35.31 114.96"/><polygon class="cls-36" points="38.05 114.96 38.38 115.63 39.11 115.73 38.58 116.25 38.71 116.98 38.05 116.64 37.39 116.98 37.52 116.25 36.99 115.73 37.72 115.63 38.05 114.96"/><polygon class="cls-36" points="40.79 114.96 41.12 115.63 41.85 115.73 41.32 116.25 41.45 116.98 40.79 116.64 40.13 116.98 40.26 116.25 39.73 115.73 40.46 115.63 40.79 114.96"/><polygon class="cls-36" points="43.53 114.96 43.86 115.63 44.59 115.73 44.06 116.25 44.19 116.98 43.53 116.64 42.87 116.98 43 116.25 42.47 115.73 43.2 115.63 43.53 114.96"/><polygon class="cls-36" points="32.57 129.66 32.9 130.33 33.63 130.44 33.1 130.96 33.23 131.69 32.57 131.34 31.91 131.69 32.04 130.96 31.51 130.44 32.24 130.33 32.57 129.66"/><polygon class="cls-36" points="35.31 129.66 35.64 130.33 36.38 130.44 35.84 130.96 35.97 131.69 35.31 131.34 34.65 131.69 34.78 130.96 34.25 130.44 34.98 130.33 35.31 129.66"/><polygon class="cls-36" points="38.05 129.66 38.38 130.33 39.11 130.44 38.58 130.96 38.71 131.69 38.05 131.34 37.39 131.69 37.52 130.96 36.99 130.44 37.72 130.33 38.05 129.66"/><polygon class="cls-36" points="40.79 129.66 41.12 130.33 41.85 130.44 41.32 130.96 41.45 131.69 40.79 131.34 40.13 131.69 40.26 130.96 39.73 130.44 40.46 130.33 40.79 129.66"/><polygon class="cls-36" points="43.53 129.66 43.86 130.33 44.59 130.44 44.06 130.96 44.19 131.69 43.53 131.34 42.87 131.69 43 130.96 42.47 130.44 43.2 130.33 43.53 129.66"/><rect class="cls-37" x="20.8" y="88.71" width="6.33" height="1.61" rx="0.8"/><ellipse class="cls-37" cx="26.12" cy="91.44" rx="1.01" ry="0.67"/><circle class="cls-7" cx="62.66" cy="121.28" r="0.53"/><rect class="cls-35" x="3.51" y="93.56" width="49.33" height="0.77"/><path class="cls-7" d="M52.84,94.83H3.75a.35.35,0,0,1,0-.7H52.84a.35.35,0,0,1,0,.7Z"/><path class="cls-7" d="M3.75,133.57a.53.53,0,0,1-.53-.53V117a.53.53,0,0,1,1,0V133A.52.52,0,0,1,3.75,133.57Z"/><path class="cls-7" d="M21.75,151.45H5a1.85,1.85,0,0,1-1.85-1.84v-12.8a.57.57,0,0,1,1.13,0v12.8a.72.72,0,0,0,.72.72H21.75a.56.56,0,0,1,0,1.12Z"/><path class="cls-7" d="M51.56,151.35H37a.46.46,0,0,1-.46-.46.45.45,0,0,1,.46-.46H51.56a.46.46,0,0,1,.46.46A.47.47,0,0,1,51.56,151.35Z"/><path class="cls-7" d="M52.84,145.34a.53.53,0,0,1-.53-.53v-54a2.16,2.16,0,0,0-2.16-2.16H40.24a.53.53,0,1,1,0-1h9.91a3.22,3.22,0,0,1,3.22,3.21v54A.53.53,0,0,1,52.84,145.34Z"/><path class="cls-7" d="M3.75,112.61a.53.53,0,0,1-.53-.53V90.82a3.21,3.21,0,0,1,3.21-3.21H35.54a.53.53,0,1,1,0,1H6.43a2.16,2.16,0,0,0-2.16,2.16v21.26A.52.52,0,0,1,3.75,112.61Z"/><circle class="cls-28" cx="17.85" cy="146.73" r="1.42"/><circle class="cls-28" cx="19.84" cy="144.2" r="0.57"/><circle class="cls-28" cx="13.89" cy="146.73" r="0.57"/><path class="cls-8" d="M30.66,155.76a5.61,5.61,0,0,0,5.46-4.35h7.19v3.09h2.63v-3.09h1.7v3.09h2.63v-3.09h2.91a1.26,1.26,0,1,0,0-2.51H36.12a5.61,5.61,0,1,0-5.46,6.86Zm0-8.13a2.53,2.53,0,1,1-2.54,2.52A2.52,2.52,0,0,1,30.66,147.63Z"/><rect class="cls-26" x="33.18" y="149.93" width="21.19" height="0.63" transform="translate(87.55 300.49) rotate(180)"/><rect class="cls-26" x="25.01" y="149.93" width="3.12" height="0.63" transform="translate(53.15 300.49) rotate(180)"/><rect class="cls-26" x="33.18" y="149.61" width="21.19" height="0.63" transform="translate(87.55 299.85) rotate(180)"/><rect class="cls-26" x="25.01" y="149.61" width="3.12" height="0.63" transform="translate(53.15 299.85) rotate(180)"/><polygon class="cls-26" points="33.18 152.3 35.83 152.3 35.52 152.93 33.18 152.93 33.18 152.3"/><polygon class="cls-26" points="25.48 152.3 28.14 152.3 28.14 152.93 25.65 152.93 25.48 152.3"/><path class="cls-38" d="M25.29,148.63A5.6,5.6,0,0,1,36,148.07a7.82,7.82,0,0,0-5.07-1.71A7.59,7.59,0,0,0,25.29,148.63Z"/><path class="cls-6" d="M49.9,153.65a.24.24,0,0,1-.24-.24v-2.34a.23.23,0,0,1,.24-.24h2.58a.24.24,0,0,1,.24.24.24.24,0,0,1-.24.24H50.14v2.1A.24.24,0,0,1,49.9,153.65Z"/><path class="cls-6" d="M49.23,154.41H48a.25.25,0,0,1-.24-.25v-2.85H46.2a.24.24,0,0,1-.24-.24.24.24,0,0,1,.24-.24H48a.23.23,0,0,1,.24.24v2.85h1a.25.25,0,0,1,0,.49Z"/><path class="cls-6" d="M44.91,154.41H43.69a.25.25,0,0,1-.24-.25v-2.85H41.88a.24.24,0,0,1-.24-.24.24.24,0,0,1,.24-.24h1.81a.24.24,0,0,1,.25.24v2.85h1a.25.25,0,0,1,0,.49Z"/><path class="cls-7" d="M30.66,156.14a6,6,0,0,1-6-6.21,6,6,0,0,1,11.73-1.41H53.18a1.64,1.64,0,1,1,0,3.27H50.64v2.31a.77.77,0,0,1-.77.77H48a.76.76,0,0,1-.77-.77v-2.31h-1V154a.83.83,0,0,1-.83.83H43.76a.83.83,0,0,1-.83-.83v-2.25H39.74a.38.38,0,0,1,0-.75h3.57a.37.37,0,0,1,.37.37V154a.08.08,0,0,0,.08.08h1.72a.07.07,0,0,0,.08-.08v-2.63a.38.38,0,0,1,.38-.37h1.7a.38.38,0,0,1,.38.37v2.69l1.85,0,0-2.71a.38.38,0,0,1,.37-.37h2.92a.88.88,0,0,0,.63-.26.91.91,0,0,0,.25-.63.88.88,0,0,0-.88-.88H36.12a.38.38,0,0,1-.37-.29,5.24,5.24,0,0,0-5.21-4.06,5.3,5.3,0,0,0-5.11,5,5.24,5.24,0,0,0,5.23,5.44,5.2,5.2,0,0,0,2.26-.52.39.39,0,0,1,.51.17.37.37,0,0,1-.18.5A5.82,5.82,0,0,1,30.66,156.14Zm4.62-2.45a.39.39,0,0,1-.21-.06.38.38,0,0,1-.1-.52,5.15,5.15,0,0,0,.78-1.78.38.38,0,0,1,.37-.29h2.19a.38.38,0,1,1,0,.75h-1.9a6,6,0,0,1-.82,1.74A.36.36,0,0,1,35.28,153.69Zm-4.62-.63a2.91,2.91,0,1,1,2.9-2.91A2.91,2.91,0,0,1,30.66,153.06Zm0-5.06a2.16,2.16,0,1,0,2.15,2.15A2.16,2.16,0,0,0,30.66,148Z"/><circle class="cls-7" cx="34.33" cy="154.44" r="0.42"/><circle class="cls-7" cx="3.75" cy="114.53" r="0.49"/><circle class="cls-7" cx="37.89" cy="88.14" r="0.49"/><path class="cls-7" d="M46.85,105l-.11,0a.29.29,0,0,1-.16-.38h0l1.59-3.77a.31.31,0,0,1,.39-.15.29.29,0,0,1,.15.38l-1.59,3.76A.29.29,0,0,1,46.85,105Z"/><path class="cls-7" d="M49,103.15l-.12,0a.3.3,0,0,1-.16-.38h0l.85-2a.28.28,0,0,1,.38-.15.29.29,0,0,1,.16.38l-.85,2A.29.29,0,0,1,49,103.15Z"/><rect class="cls-27" x="109.95" y="147.84" width="4.23" height="2.92"/><path class="cls-7" d="M114.18,156.29a.53.53,0,0,1-.53-.53v-7.92a.53.53,0,1,1,1.06,0v7.92A.53.53,0,0,1,114.18,156.29Z"/><path class="cls-7" d="M110,156.29a.53.53,0,0,1-.53-.53v-7.92a.53.53,0,1,1,1,0v7.92A.52.52,0,0,1,110,156.29Z"/><path class="cls-6" d="M86.3,121.57V108.91h56.59v35.81a3.4,3.4,0,0,1-3.4,3.39H91.58a5.72,5.72,0,0,1-5.73-5.85Z"/><path class="cls-27" d="M142.84,126.68a34.26,34.26,0,0,1-10.66,10.19.71.71,0,0,0-.68-.5.72.72,0,0,0-.54,1.22c-.83.47-1.67.92-2.53,1.33a2.17,2.17,0,0,0-4,1.09,2,2,0,0,0,.08.55c-.87.32-1.75.6-2.65.87a2,2,0,0,0-1.57-.65c-1,0-1.75.5-1.75,1.12a.75.75,0,0,0,.1.36,65.56,65.56,0,0,1-32.72-1.61l0,1.61a5.72,5.72,0,0,0,5.73,5.85h47.91a3.4,3.4,0,0,0,3.4-3.39Z"/><rect class="cls-39" x="86.85" y="108.66" width="55.76" height="5.2"/><path class="cls-7" d="M139.49,148.64H102.37a.53.53,0,1,1,0-1.06h37.12a2.87,2.87,0,0,0,2.87-2.86V109.44H86.83v12.13a.53.53,0,0,1-1.06,0V108.91a.53.53,0,0,1,.53-.53h56.59a.53.53,0,0,1,.53.53v35.81A3.93,3.93,0,0,1,139.49,148.64Z"/><path class="cls-7" d="M97.08,148.64H89.69a3.93,3.93,0,0,1-3.92-3.92V127.56a.53.53,0,0,1,1.06,0v17.16a2.86,2.86,0,0,0,2.86,2.86h7.39a.53.53,0,0,1,0,1.06Z"/><polygon class="cls-36" points="101.07 117.82 101.86 119.44 103.65 119.7 102.36 120.95 102.66 122.73 101.07 121.89 99.47 122.73 99.78 120.95 98.48 119.7 100.27 119.44 101.07 117.82"/><polygon class="cls-36" points="107.72 117.82 108.52 119.44 110.3 119.7 109.01 120.95 109.31 122.73 107.72 121.89 106.12 122.73 106.43 120.95 105.14 119.7 106.92 119.44 107.72 117.82"/><polygon class="cls-36" points="114.37 117.82 115.17 119.44 116.95 119.7 115.66 120.95 115.96 122.73 114.37 121.89 112.77 122.73 113.08 120.95 111.79 119.7 113.57 119.44 114.37 117.82"/><polygon class="cls-36" points="121.02 117.82 121.82 119.44 123.6 119.7 122.31 120.95 122.61 122.73 121.02 121.89 119.42 122.73 119.73 120.95 118.44 119.7 120.22 119.44 121.02 117.82"/><polygon class="cls-36" points="127.67 117.82 128.47 119.44 130.25 119.7 128.96 120.95 129.26 122.73 127.67 121.89 126.07 122.73 126.38 120.95 125.09 119.7 126.87 119.44 127.67 117.82"/><path class="cls-7" d="M89.75,119.08a.16.16,0,0,1-.1,0,.25.25,0,0,1-.14-.33h0l1.39-3.29a.27.27,0,0,1,.34-.14.26.26,0,0,1,.13.34L90,118.92A.25.25,0,0,1,89.75,119.08Z"/><path class="cls-7" d="M91.6,117.49l-.1,0a.25.25,0,0,1-.14-.33h0l.75-1.76a.25.25,0,1,1,.47.19l-.75,1.77A.25.25,0,0,1,91.6,117.49Z"/><circle class="cls-7" cx="99.76" cy="148.22" r="0.58"/><circle class="cls-7" cx="86.3" cy="124.53" r="0.58"/><rect class="cls-40" x="83.51" y="103.98" width="62.17" height="5.58" rx="2.79"/><path class="cls-41" d="M145.21,106.92a2.8,2.8,0,0,1-.81,2,2.87,2.87,0,0,1-2,.81l-57.64-.4c-.75,0-.64-1.26-1.14-1.75,23.76,1.44,53.71,2.62,60.36-2.93A2.77,2.77,0,0,1,145.21,106.92Z"/><circle class="cls-41" cx="135.6" cy="107.82" r="0.85"/><circle class="cls-41" cx="138.26" cy="107.27" r="0.29"/><circle class="cls-41" cx="133.02" cy="108.24" r="0.42"/><circle class="cls-42" cx="130.76" cy="107.54" r="0.28"/><circle class="cls-42" cx="132.53" cy="106.68" r="0.5"/><circle class="cls-42" cx="134.32" cy="105.68" r="0.43"/><path class="cls-43" d="M136.44,106.43v0Z"/><circle class="cls-27" cx="129.66" cy="136.37" r="0.39"/><circle class="cls-27" cx="121.41" cy="137.98" r="0.58"/><circle class="cls-27" cx="125.59" cy="135.71" r="0.27"/><rect class="cls-44" x="84.07" y="104.19" width="17.84" height="2.25" rx="1.12"/><path class="cls-7" d="M142.89,110.29H86.3a3.32,3.32,0,1,1,0-6.63h18.16a.53.53,0,0,1,0,1.06H86.3a2.26,2.26,0,0,0,0,4.52h56.59a2.26,2.26,0,1,0,0-4.52H109a.53.53,0,1,1,0-1.06h33.88a3.32,3.32,0,1,1,0,6.63Z"/><circle class="cls-7" cx="106.73" cy="104.19" r="0.58"/><path class="cls-7" d="M133.06,124.13a.29.29,0,0,1-.3-.3V110.24a.3.3,0,0,1,.3-.31.31.31,0,0,1,.31.31v13.59A.3.3,0,0,1,133.06,124.13Z"/><path class="cls-7" d="M133.06,129.7a3,3,0,1,1,3-3A3,3,0,0,1,133.06,129.7Zm0-5.41a2.4,2.4,0,1,0,2.4,2.39A2.39,2.39,0,0,0,133.06,124.29Z"/><rect class="cls-21" x="107.46" y="126.25" width="19.82" height="1.55" rx="0.28"/><rect class="cls-21" x="107.46" y="129.77" width="19.82" height="1.55" rx="0.28"/><rect class="cls-21" x="107.46" y="133.29" width="19.82" height="1.55" rx="0.28"/><path class="cls-24" d="M103.63,131.27a1.8,1.8,0,0,0-.38-.55,2.45,2.45,0,0,0-.53-.38,4.65,4.65,0,0,0-.57-.26l-.73-.3a1.68,1.68,0,0,1-.55-.35.66.66,0,0,1-.21-.51.76.76,0,0,1,.1-.41.57.57,0,0,1,.3-.27,1.33,1.33,0,0,1,.53-.09,1,1,0,0,1,.54.14,1.25,1.25,0,0,1,.4.36,2.8,2.8,0,0,1,.31.5l.86-.53a2.49,2.49,0,0,0-.44-.65,2.17,2.17,0,0,0-.7-.52,2.21,2.21,0,0,0-.55-.17v-1h-.86v1a2,2,0,0,0-.65.19,1.69,1.69,0,0,0-.72.59,1.34,1.34,0,0,0-.26.82,1.67,1.67,0,0,0,.16.78,1.79,1.79,0,0,0,.42.55,2.65,2.65,0,0,0,.55.37,5.34,5.34,0,0,0,.53.23c.25.09.48.19.7.29a2,2,0,0,1,.53.39.81.81,0,0,1,.21.58,1,1,0,0,1-.11.48.72.72,0,0,1-.32.3,1.26,1.26,0,0,1-.55.1,1.35,1.35,0,0,1-.67-.16,1.57,1.57,0,0,1-.52-.45,4,4,0,0,1-.45-.72l-.83.55a2.81,2.81,0,0,0,.56.88,2.78,2.78,0,0,0,.83.62,3.09,3.09,0,0,0,.59.18v1H102l0-1a2.61,2.61,0,0,0,.79-.2,1.71,1.71,0,0,0,.73-.65,1.92,1.92,0,0,0,.26-1A1.81,1.81,0,0,0,103.63,131.27Z"/><rect class="cls-45" x="108.85" y="7.12" width="2.49" height="1.53" transform="translate(5.9 -28.53) rotate(15.17)"/><polygon class="cls-45" points="111.75 7.04 109.3 5.37 109.98 3.98 112.22 5.51 111.75 7.04"/><rect class="cls-45" x="112.08" y="3.21" width="2.49" height="1.53" transform="translate(77.53 -103.63) rotate(69.59)"/><rect class="cls-45" x="114.76" y="2.23" width="2.49" height="1.53" transform="translate(78.36 -106.78) rotate(69.59)"/><rect class="cls-45" x="108.08" y="9.99" width="2.49" height="1.53" transform="translate(6.62 -28.23) rotate(15.17)"/><path class="cls-7" d="M110.26,13.6l-.1,0a.37.37,0,0,1-.27-.47L112,5.36a.37.37,0,0,1,.24-.26l6.88-2.46L118.4.87,110.28,4l-2.34,8.62a.38.38,0,0,1-.47.27.37.37,0,0,1-.27-.47l2.39-8.81a.38.38,0,0,1,.23-.26L118.48,0a.39.39,0,0,1,.49.22l1,2.49a.39.39,0,0,1,0,.3.36.36,0,0,1-.22.2l-7.06,2.52-2.06,7.56A.38.38,0,0,1,110.26,13.6Z"/><path class="cls-25" d="M119.48,67h-19a2.35,2.35,0,0,1-2.35-2.25L95.06,18.09a2.28,2.28,0,0,1,2.28-2.37h25.27a2.28,2.28,0,0,1,2.28,2.37l-3.06,46.66A2.35,2.35,0,0,1,119.48,67Z"/><path class="cls-46" d="M125,18.09l-3,46.65A2.36,2.36,0,0,1,119.56,67h-19a2.35,2.35,0,0,1-1.65-.67c18.6-10.69,23.29-39.14,24.45-50.52A2.28,2.28,0,0,1,125,18.09Z"/><path class="cls-7" d="M97.35,53.51a.48.48,0,0,1-.47-.43l-1-15.59a.48.48,0,0,1,.44-.5.48.48,0,0,1,.5.44l1,15.58a.46.46,0,0,1-.44.5Z"/><path class="cls-7" d="M119.48,67.47h-19a2.81,2.81,0,0,1-2.82-2.7l-.4-6.07a.47.47,0,1,1,.94-.06l.4,6.08a1.88,1.88,0,0,0,1.88,1.81h19a1.88,1.88,0,0,0,1.88-1.8l3.06-46.67a1.82,1.82,0,0,0-.5-1.32,1.8,1.8,0,0,0-1.31-.55H97.34a1.8,1.8,0,0,0-1.31.55,1.83,1.83,0,0,0-.5,1.33l.91,14a.47.47,0,1,1-.93.06l-.92-14a2.77,2.77,0,0,1,2.75-2.87h25.27a2.77,2.77,0,0,1,2.75,2.86L122.3,64.78A2.81,2.81,0,0,1,119.48,67.47Z"/><path class="cls-6" d="M98.91,45.48a.36.36,0,0,1-.36-.34l-.42-6.42a.37.37,0,0,1,.73,0l.41,6.42a.36.36,0,0,1-.34.39Z"/><ellipse class="cls-6" cx="99.08" cy="47.71" rx="0.62" ry="0.84" transform="translate(-2.89 6.54) rotate(-3.73)"/><path class="cls-7" d="M99.47,26.64l-.12,0a.31.31,0,0,1-.17-.39h0l1.66-3.93a.31.31,0,0,1,.4-.16.32.32,0,0,1,.16.4l-1.66,3.92A.33.33,0,0,1,99.47,26.64Z"/><path class="cls-7" d="M101.68,24.74l-.12,0a.31.31,0,0,1-.17-.4h0l.88-2.1a.31.31,0,0,1,.4-.16.29.29,0,0,1,.16.4l-.89,2.1A.29.29,0,0,1,101.68,24.74Z"/><circle class="cls-46" cx="107.06" cy="59.64" r="2.25"/><circle class="cls-46" cx="103.31" cy="60.3" r="0.54"/><circle class="cls-47" cx="104.19" cy="56.6" r="0.7"/><circle class="cls-47" cx="104.43" cy="53.35" r="0.62"/><circle class="cls-48" cx="105.98" cy="50.15" r="0.48"/><path class="cls-46" d="M98.63,18.49h25a0,0,0,0,1,0,0v2.73a0,0,0,0,1,0,0H101.36a2.73,2.73,0,0,1-2.73-2.73v0A0,0,0,0,1,98.63,18.49Z"/><polyline class="cls-49" points="128.1 18.97 126.76 14.96 111.17 14.96 108.78 14.96 93.19 14.96 91.85 18.97"/><path class="cls-7" d="M91.85,19.36l-.12,0a.39.39,0,0,1-.24-.49l1.34-4a.38.38,0,0,1,.36-.26h25a.39.39,0,0,1,0,.77H93.46l-1.25,3.75A.37.37,0,0,1,91.85,19.36Z"/><path class="cls-6" d="M100.63,17.07H94.2a.37.37,0,1,1,0-.73h6.43a.37.37,0,0,1,.37.36A.38.38,0,0,1,100.63,17.07Z"/><ellipse class="cls-6" cx="103.24" cy="16.7" rx="0.84" ry="0.62"/><circle class="cls-7" cx="97.48" cy="55.13" r="0.54"/><circle class="cls-7" cx="96.11" cy="34.1" r="0.54"/><path class="cls-7" d="M126.55,19.46H93.4a.38.38,0,0,1-.38-.38.39.39,0,0,1,.38-.39h33.15a.39.39,0,0,1,.38.39A.38.38,0,0,1,126.55,19.46Z"/><path class="cls-7" d="M128.1,19.36a.37.37,0,0,1-.36-.27l-1.25-3.75h-5.16a.39.39,0,1,1,0-.77h5.43a.38.38,0,0,1,.36.26l1.34,4a.39.39,0,0,1-.24.49Z"/><circle class="cls-46" cx="111.14" cy="55.04" r="1.32"/><circle class="cls-46" cx="108.38" cy="56.11" r="0.63"/><circle class="cls-47" cx="107.23" cy="52.68" r="0.53"/><circle class="cls-50" cx="107.06" cy="54.36" r="0.53"/><path class="cls-6" d="M121,31.31l.56-1.83,6.62-2.4s4.23,3.67,3.89,3.73S121,31.31,121,31.31Z"/><circle class="cls-47" cx="107.71" cy="53.47" r="0.6"/><path class="cls-6" d="M136,36.41,131.7,69.07a2.28,2.28,0,0,1-2.24,1.84H113.91a2.28,2.28,0,0,1-2.24-1.84l-4.29-32.66"/><path class="cls-51" d="M131,36.52l-.21,1.2H107.61v1.14h20.76A1.85,1.85,0,0,1,130.2,41l-3.26,19H110.75l.59,2.1H124c1.37,0,2.4,3.87,2.17,5.22l-.32,1.87A2.28,2.28,0,0,1,123.57,71h5.73a2.29,2.29,0,0,0,2.24-1.84l4.28-32.66Z"/><path class="cls-7" d="M129.46,71.4H113.91a2.78,2.78,0,0,1-2.72-2.23l-4.29-32.7a.49.49,0,0,1,.42-.55.49.49,0,0,1,.55.42L112.15,69a1.81,1.81,0,0,0,1.76,1.41h15.55A1.81,1.81,0,0,0,131.22,69l4.28-32.63a.49.49,0,1,1,1,.13l-4.28,32.66A2.8,2.8,0,0,1,129.46,71.4Z"/><path class="cls-52" d="M137.28,43.89l-2.51,14.55A1.89,1.89,0,0,1,132.92,60h-22.5a1.89,1.89,0,0,1-1.85-1.56l-2.51-14.55a1.88,1.88,0,0,1,1.85-2.2h27.52A1.89,1.89,0,0,1,137.28,43.89Z"/><path class="cls-53" d="M126.94,60c2.39-5.29,3.15-18.29,3.15-18.29h5.34a1.87,1.87,0,0,1,1.85,2.18l-2.52,14.56A1.87,1.87,0,0,1,132.92,60"/><path class="cls-54" d="M135,59.17a1.89,1.89,0,0,1-1.44.66H120.5c5.8-6.77,7.81-13.13,8.13-18.3h2.13l-3.15,18.29h6A1.91,1.91,0,0,0,135,59.17Z"/><path class="cls-7" d="M136.64,47.93h-.06a.37.37,0,0,1-.3-.43l.64-3.67a1.52,1.52,0,0,0-.34-1.23,1.49,1.49,0,0,0-1.15-.54H125.3a.37.37,0,1,1,0-.73h10.13a2.25,2.25,0,0,1,2.21,2.62L137,47.62A.37.37,0,0,1,136.64,47.93Z"/><path class="cls-7" d="M107.37,51.86a.37.37,0,0,1-.36-.31l-1.31-7.61a2.24,2.24,0,0,1,2.21-2.62h11.56a.37.37,0,1,1,0,.73H107.91a1.52,1.52,0,0,0-1.16.54,1.55,1.55,0,0,0-.33,1.23l1.32,7.61a.36.36,0,0,1-.3.42Z"/><path class="cls-7" d="M132.92,60.36h-22.5a2.24,2.24,0,0,1-2.21-1.86l-.45-2.61a.36.36,0,0,1,.3-.42.36.36,0,0,1,.42.3l.45,2.6a1.51,1.51,0,0,0,1.49,1.25h22.5a1.49,1.49,0,0,0,1.48-1.25l1.07-6.17a.36.36,0,0,1,.42-.3.37.37,0,0,1,.3.43l-1.06,6.17A2.25,2.25,0,0,1,132.92,60.36Z"/><path class="cls-7" d="M130.9,46.8l-.08,0a.21.21,0,0,1-.12-.27h0l1.15-2.71a.21.21,0,0,1,.28-.11.21.21,0,0,1,.11.27l-1.15,2.71A.21.21,0,0,1,130.9,46.8Z"/><path class="cls-7" d="M132.42,45.49l-.08,0a.2.2,0,0,1-.11-.27h0l.61-1.45a.21.21,0,0,1,.28-.11.2.2,0,0,1,.11.27l-.61,1.45A.22.22,0,0,1,132.42,45.49Z"/><ellipse class="cls-53" cx="127.7" cy="56.32" rx="1.31" ry="0.76" transform="translate(46.99 170.19) rotate(-78.47)"/><circle class="cls-53" cx="127.09" cy="54.22" r="0.38"/><circle class="cls-53" cx="125.81" cy="58.57" r="0.51"/><circle class="cls-55" cx="125.6" cy="56.14" r="0.3"/><circle class="cls-53" cx="128" cy="52.13" r="1.29"/><circle class="cls-53" cx="126.37" cy="49.68" r="0.32"/><circle class="cls-55" cx="125.66" cy="52.12" r="0.63"/><circle class="cls-55" cx="127.47" cy="47.7" r="0.63"/><path class="cls-7" d="M131.93,30.75a.43.43,0,0,1-.28-.11L128.89,28a1,1,0,0,0-1-.25.39.39,0,0,1-.5-.26.39.39,0,0,1,.26-.5,1.83,1.83,0,0,1,1.81.43l2.77,2.66a.41.41,0,0,1,0,.57A.42.42,0,0,1,131.93,30.75Z"/><path class="cls-7" d="M120.73,30.51a.4.4,0,0,1-.16-.76l4.71-2a.4.4,0,1,1,.31.73l-4.71,2A.4.4,0,0,1,120.73,30.51Z"/><path class="cls-6" d="M110.76,30.1h22a1.51,1.51,0,0,1,1.51,1.51v3.86a0,0,0,0,1,0,0h-25a0,0,0,0,1,0,0V31.6A1.51,1.51,0,0,1,110.76,30.1Z"/><path class="cls-6" d="M136.57,37.72h-29.8a.77.77,0,0,1-.66-1.16h0a5.94,5.94,0,0,1,5.14-3h20.84a6,6,0,0,1,5.14,3h0A.77.77,0,0,1,136.57,37.72Z"/><path class="cls-51" d="M131.3,37.57c-.07.33-.42-.17-.47.18h-7.68a4.42,4.42,0,0,0-2.27-4.14c-1.13-.77-.55-2.58-2-3.38l8.63-.13a2.14,2.14,0,0,1,1.82,3.51C128.94,34.08,132.12,33.93,131.3,37.57Z"/><path class="cls-7" d="M109.26,34.31a.38.38,0,0,1-.38-.38V31.6a1.88,1.88,0,0,1,1.88-1.88h22a1.89,1.89,0,0,1,1.89,1.88.39.39,0,1,1-.77,0,1.12,1.12,0,0,0-1.12-1.12h-22a1.12,1.12,0,0,0-1.12,1.12v2.33A.38.38,0,0,1,109.26,34.31Z"/><path class="cls-7" d="M136.57,38.1h-29.8a1.15,1.15,0,0,1-1-1.74,6.36,6.36,0,0,1,5.47-3.13h12.21a.39.39,0,0,1,0,.77H111.25a5.58,5.58,0,0,0-4.81,2.75.38.38,0,0,0,0,.39.4.4,0,0,0,.34.19h29.8a.36.36,0,0,0,.33-.19.37.37,0,0,0,0-.39A5.6,5.6,0,0,0,132.09,34h-3.86a.39.39,0,0,1,0-.77h3.86a6.36,6.36,0,0,1,5.47,3.13,1.15,1.15,0,0,1-1,1.74Z"/><path class="cls-6" d="M109.63,52.93a.33.33,0,0,1-.32-.26l-.89-4.36a.32.32,0,0,1,.63-.13l.89,4.36a.31.31,0,0,1-.25.38Z"/><ellipse class="cls-6" cx="108.37" cy="46.48" rx="0.43" ry="0.58" transform="translate(-7.13 22.7) rotate(-11.58)"/><path class="cls-7" d="M127.91,56.5h6.6a.34.34,0,0,1,0,.68h-6.6a.34.34,0,1,1,0-.68Z"/><path class="cls-7" d="M124.89,56.5h.93a.34.34,0,0,1,0,.68h-.93a.34.34,0,1,1,0-.68Z"/><circle class="cls-7" cx="107.56" cy="53.38" r="0.56"/><circle class="cls-7" cx="125.25" cy="33.62" r="0.56"/><circle class="cls-7" cx="136.35" cy="50.02" r="0.56"/><polygon class="cls-56" points="236.15 35.05 224.44 23.68 223.31 23.97 224.16 23.68 197.61 15.68 197.1 15.68 170.07 23.68 158.37 35.05 167.04 37.39 167.01 37.49 167.01 63 185.56 67.82 185.56 68.37 187 68.19 196.86 70.75 197.88 70.75 227.72 63 227.72 37.49 227.72 37.33 236.15 35.05"/><polygon class="cls-57" points="223.67 23.88 198.28 30.5 196.19 30.5 170.07 23.68 197.1 15.68 223.67 23.88"/><path class="cls-58" d="M197.47,15.85c-1.34,3.51-4.58,9.32-10.5,12l-4.7-1.24L171,23.67l22.38-6.61Z"/><path class="cls-57" d="M227.85,37V62.72l-27.62,7.17-3,.77.11-3.79L205,65l15.09-3.72a6,6,0,0,0,4.59-5.84V38.13Z"/><path class="cls-57" d="M167,37v24.1c0,.91.24,1.74,1.12,2l26.13,6.78L197.78,71l-.68-4.15L189.44,65l-15.1-3.72a6,6,0,0,1-4.58-5.84V38.13Z"/><path class="cls-59" d="M170.12,35.74a5.89,5.89,0,0,0,6.16,1.44l.05,0c1.14-.44,2.35-1.36,2.25-2.58a2.55,2.55,0,0,0-.75-1.46,3.7,3.7,0,0,0-2.42-1.27,8.5,8.5,0,0,0-2.37.42,8.38,8.38,0,0,1-4.83-.35,4.87,4.87,0,0,0-1.16-.36,1.2,1.2,0,0,0-1.1.38,1.24,1.24,0,0,0,.43,1.64,6.41,6.41,0,0,0,1.73.7,3.66,3.66,0,0,1,1.62,1.07Z"/><ellipse class="cls-59" cx="171" cy="30.86" rx="0.96" ry="2.12" transform="translate(125.47 198.55) rotate(-85.04)"/><circle class="cls-7" cx="166.99" cy="53.85" r="0.58"/><ellipse class="cls-6" cx="171" cy="48.67" rx="0.45" ry="0.62"/><path class="cls-7" d="M197.35,29.85a.25.25,0,0,1-.26-.25V18.15a.26.26,0,1,1,.51,0V29.6A.25.25,0,0,1,197.35,29.85Z"/><path class="cls-7" d="M170.05,24.09a.42.42,0,0,1-.12-.81l27-8a.41.41,0,0,1,.51.28.4.4,0,0,1-.27.51l-27,8Z"/><path class="cls-7" d="M224.13,24.09l-.12,0-26.54-8a.41.41,0,0,1-.27-.51.41.41,0,0,1,.51-.28l26.54,8a.42.42,0,0,1,.28.51A.43.43,0,0,1,224.13,24.09Z"/><path class="cls-7" d="M198.77,30.75h-3.12a.26.26,0,0,1,0-.51h3.12a.26.26,0,0,1,0,.51Z"/><path class="cls-57" d="M197.92,69.75a.37.37,0,0,1-.38-.37V48.87a.38.38,0,0,1,.75,0V69.38A.37.37,0,0,1,197.92,69.75Z"/><path class="cls-57" d="M197.92,46.71a.37.37,0,0,1-.38-.37V45.22a.38.38,0,0,1,.75,0v1.12A.37.37,0,0,1,197.92,46.71Z"/><path class="cls-57" d="M197.92,42.44a.38.38,0,0,1-.38-.38V34.53a.38.38,0,0,1,.75,0v7.53A.38.38,0,0,1,197.92,42.44Z"/><path class="cls-7" d="M196.84,71.16h-.11L168,63.7a2,2,0,0,1-1.46-1.89V55.89a.41.41,0,0,1,.41-.41.41.41,0,0,1,.41.41v5.92a1.13,1.13,0,0,0,.85,1.09l28.69,7.45a.41.41,0,0,1,.29.5A.39.39,0,0,1,196.84,71.16Z"/><path class="cls-7" d="M167,52.27a.41.41,0,0,1-.41-.41V49.15a.41.41,0,0,1,.41-.41.41.41,0,0,1,.41.41v2.71A.41.41,0,0,1,167,52.27Z"/><path class="cls-7" d="M167,46.48a.42.42,0,0,1-.41-.42V37.49a.41.41,0,0,1,.41-.41.41.41,0,0,1,.41.41v8.57A.41.41,0,0,1,167,46.48Z"/><path class="cls-7" d="M197.86,71.16a.41.41,0,0,1-.11-.81l28.69-7.45a1.13,1.13,0,0,0,.85-1.09V37.49a.41.41,0,1,1,.82,0V61.81a2,2,0,0,1-1.46,1.89L198,71.15Z"/><path class="cls-7" d="M189.14,63h-.06l-7.23-1.72a.26.26,0,0,1-.19-.31.26.26,0,0,1,.31-.19l7.23,1.72a.26.26,0,0,1-.06.51Z"/><path class="cls-7" d="M189.14,61.23h-.06l-7.23-1.72a.26.26,0,0,1-.19-.31A.27.27,0,0,1,182,59l7.23,1.72a.27.27,0,0,1,.19.31A.26.26,0,0,1,189.14,61.23Z"/><path class="cls-7" d="M189.14,59.43h-.06l-7.23-1.72a.27.27,0,0,1-.19-.31.25.25,0,0,1,.31-.19l7.23,1.72a.26.26,0,0,1,.19.31A.26.26,0,0,1,189.14,59.43Z"/><polygon class="cls-6" points="189.14 50.22 181.91 48.5 181.91 55.45 189.14 57.17 189.14 50.22"/><path class="cls-28" d="M189.14,51.11v6L184.54,56A12,12,0,0,0,189.14,51.11Z"/><ellipse class="cls-57" cx="222.48" cy="60.65" rx="2.88" ry="2.04" transform="translate(-8.07 55.89) rotate(-14.07)"/><ellipse class="cls-57" cx="224.27" cy="56.49" rx="0.86" ry="1.24" transform="translate(108.37 256.64) rotate(-74.07)"/><g class="cls-20"><circle class="cls-57" cx="219.41" cy="58.92" r="0.53"/><ellipse class="cls-57" cx="221.35" cy="57.54" rx="0.34" ry="0.53" transform="translate(105.25 254.58) rotate(-74.07)"/><circle class="cls-57" cx="217.58" cy="59.98" r="0.21"/></g><ellipse class="cls-57" cx="211.32" cy="63.23" rx="1.04" ry="0.8"/><circle class="cls-57" cx="212" cy="61.34" r="0.36"/><circle class="cls-57" cx="208.9" cy="63.25" r="0.5"/><circle class="cls-60" cx="209.68" cy="61.62" r="0.28"/><path class="cls-57" d="M185.16,43.23a2.35,2.35,0,0,1-.64-.09L168.4,38.75a.33.33,0,0,1-.24-.42.34.34,0,0,1,.42-.24l16.12,4.39a1.66,1.66,0,0,0,1.71-.5l9.4-10.54a.34.34,0,0,1,.51.45l-9.4,10.54A2.35,2.35,0,0,1,185.16,43.23Z"/><path class="cls-57" d="M209.34,43.37a1.94,1.94,0,0,1-1.5-.73l-9.42-10.9a.34.34,0,1,1,.51-.44l9.43,10.89a1.26,1.26,0,0,0,1.47.42L226,38.23a.34.34,0,1,1,.18.66L210,43.27A2.32,2.32,0,0,1,209.34,43.37Z"/><path class="cls-59" d="M160,34.64a.47.47,0,0,1-.35-.15.5.5,0,0,1,0-.7l9.28-9.11a2.48,2.48,0,0,1,2.36-.62l22.49,6a.5.5,0,0,1-.25,1L171,25a1.49,1.49,0,0,0-1.41.37l-9.29,9.11A.46.46,0,0,1,160,34.64Z"/><path class="cls-59" d="M200.75,30.94a.34.34,0,0,1-.09-.67l22.49-6a.35.35,0,0,1,.42.25.34.34,0,0,1-.24.42l-22.49,6Z"/><path class="cls-7" d="M185.38,42.74l-.24,0-26.06-7a.91.91,0,0,1-.39-1.53l11.07-10.77a.4.4,0,0,1,.39-.1l26.14,6.82a.39.39,0,0,1,.29.28.41.41,0,0,1-.09.39l-5.36,6a.42.42,0,0,1-.58,0,.41.41,0,0,1,0-.58l4.91-5.5-25.26-6.59L159.26,34.74l0,.14,26.06,7,3-3.31a.41.41,0,0,1,.62.55l-2.94,3.28A.89.89,0,0,1,185.38,42.74Z"/><ellipse class="cls-6" cx="167.97" cy="28.01" rx="1.03" ry="0.84" transform="translate(53.12 153.73) rotate(-57.05)"/><circle class="cls-6" cx="169.23" cy="27.13" r="0.23"/><circle class="cls-6" cx="167.57" cy="29.6" r="0.29"/><circle class="cls-6" cx="163.56" cy="32.28" r="0.52"/><path class="cls-7" d="M197.35,69.64a.26.26,0,0,1-.26-.26V48.87a.26.26,0,1,1,.51,0V69.38A.26.26,0,0,1,197.35,69.64Z"/><path class="cls-7" d="M197.35,46.6a.26.26,0,0,1-.26-.26V45.22a.26.26,0,1,1,.51,0v1.12A.26.26,0,0,1,197.35,46.6Z"/><path class="cls-7" d="M197.35,42.32a.25.25,0,0,1-.26-.26V34.53a.26.26,0,0,1,.51,0v7.53A.25.25,0,0,1,197.35,42.32Z"/><path class="cls-7" d="M189.14,57.43h-.06l-7.23-1.72a.26.26,0,0,1-.19-.25V52.67a.26.26,0,1,1,.51,0v2.58l6.71,1.6V50.42l-6.71-1.6v1.56a.26.26,0,1,1-.51,0V48.5a.24.24,0,0,1,.09-.2.26.26,0,0,1,.22,0L189.2,50a.26.26,0,0,1,.19.25v7a.23.23,0,0,1-.1.2A.22.22,0,0,1,189.14,57.43Z"/><path class="cls-6" d="M171,47.37a.26.26,0,0,1-.25-.26V44.43a.26.26,0,1,1,.51,0v2.68A.26.26,0,0,1,171,47.37Z"/><path class="cls-7" d="M209.29,42.83a1,1,0,0,1-.75-.33L198.12,30.83a.5.5,0,0,1-.11-.48.48.48,0,0,1,.35-.34l26.14-6.82a.5.5,0,0,1,.48.12l11.07,10.77a1,1,0,0,1,.27,1,1,1,0,0,1-.7.72l-26.07,7A1.09,1.09,0,0,1,209.29,42.83Zm-9.87-12,9.87,11,26.06-7L224.48,24.23Z"/><circle class="cls-7" cx="189.71" cy="37.73" r="0.58"/><path class="cls-7" d="M187.08,35.54a.31.31,0,0,1-.1,0,.27.27,0,0,1,0-.36h0l2.25-2.89a.25.25,0,0,1,.36,0,.26.26,0,0,1,0,.37l-2.25,2.89A.28.28,0,0,1,187.08,35.54Z"/><path class="cls-7" d="M189.33,34.45l-.09-.05a.25.25,0,0,1-.05-.36h0l1.21-1.55a.25.25,0,0,1,.36,0,.25.25,0,0,1,.05.36l-1.2,1.55A.26.26,0,0,1,189.33,34.45Z"/><path class="cls-61" d="M16.5,26.93V47.6a3.35,3.35,0,0,0,3.34,3.34l33.75.14a3.35,3.35,0,0,0,3.35-3.35V27.07Z"/><path class="cls-62" d="M5,71H2.86C1.56,71,.52,69.61.52,67.87V32c0-1.74,1-3.15,2.34-3.15H5c-1.29,0-2.34,1.41-2.34,3.15V67.87C2.61,69.61,3.66,71,5,71Z"/><path class="cls-7" d="M55.08,71.45H49.65a.44.44,0,0,1,0-.88h5.43a2.71,2.71,0,0,0,2.71-2.71V32a2.71,2.71,0,0,0-2.71-2.71.44.44,0,0,1-.44-.44.44.44,0,0,1,.44-.44A3.59,3.59,0,0,1,58.67,32V67.86A3.59,3.59,0,0,1,55.08,71.45Z"/><path class="cls-7" d="M46.64,27.24H14.21a.45.45,0,1,1,0-.9H46.64a.45.45,0,0,1,0,.9Z"/><path class="cls-7" d="M13.8,29.27H11.53a.44.44,0,0,1,0-.88H13.8a.44.44,0,0,1,0,.88Z"/><rect class="cls-63" x="5.19" y="31.01" width="50.66" height="37.75" rx="2.02"/><path class="cls-64" d="M62.59,50.4a3.36,3.36,0,0,1-3.06,2l-33.76-.14a3.34,3.34,0,0,1-3.34-3.33V29h1.85V48.32a2.09,2.09,0,0,0,2.09,2.08Z"/><path class="cls-7" d="M5.3,46.12A.28.28,0,0,1,5,45.84V33a2.3,2.3,0,0,1,2.3-2.3h8.52a.28.28,0,0,1,.28.28.27.27,0,0,1-.28.28H7.32A1.74,1.74,0,0,0,5.58,33V45.84A.29.29,0,0,1,5.3,46.12Z"/><path class="cls-7" d="M53.94,69H7.32A2.31,2.31,0,0,1,5,66.67V53.87a.27.27,0,0,1,.28-.28.28.28,0,0,1,.28.28v12.8a1.75,1.75,0,0,0,1.74,1.75H53.94a1.75,1.75,0,0,0,1.74-1.75l0-14.26a.28.28,0,0,1,.28-.28h0a.29.29,0,0,1,.28.29l0,14.25A2.31,2.31,0,0,1,53.94,69Z"/><path class="cls-7" d="M5.3,52.37A.28.28,0,0,1,5,52.09V49.15a.28.28,0,0,1,.28-.28.29.29,0,0,1,.28.28v2.94A.29.29,0,0,1,5.3,52.37Z"/><circle class="cls-65" cx="36.66" cy="63.1" r="0.49"/><path class="cls-64" d="M53.83,66.47H38.47a.5.5,0,0,0,0-.12.76.76,0,0,0-1.52,0s0,.08,0,.12H35.8a1,1,0,0,0,.05-.24.89.89,0,1,0-1.78,0,1,1,0,0,0,0,.24H7.21a2,2,0,0,1-2-2v2.29a2,2,0,0,0,2,2H53.83a2,2,0,0,0,2-2V64.44A2,2,0,0,1,53.83,66.47Z"/><circle class="cls-65" cx="34.86" cy="62.6" r="0.28"/><circle class="cls-65" cx="38.67" cy="63.26" r="0.19"/><circle class="cls-65" cx="37.41" cy="61.31" r="0.42"/><circle class="cls-65" cx="33.15" cy="62.56" r="0.42"/><rect class="cls-66" x="13.96" y="42.62" width="2.06" height="8.23" rx="1.03"/><path class="cls-6" d="M63.35,22.82H18.89a2.27,2.27,0,0,0-.65.08h.57a2.32,2.32,0,0,0-2.38,2.38V56.23a2.46,2.46,0,0,0,2.46,2.46H63.35a2.46,2.46,0,0,0,2.46-2.46V25.28A2.46,2.46,0,0,0,63.35,22.82Z"/><path class="cls-28" d="M65.83,25.63v31a2.46,2.46,0,0,1-2.46,2.46H32.63c47.69,0,15.09-27.54,27.69-35.87h3A2.45,2.45,0,0,1,65.83,25.63Z"/><path class="cls-6" d="M27.23,30.25H23.47a.33.33,0,1,1,0-.66h3.76a.33.33,0,1,1,0,.66Z"/><path class="cls-6" d="M27.23,42.49H23.47a.33.33,0,0,1,0-.66h3.76a.33.33,0,0,1,0,.66Z"/><path class="cls-6" d="M27.23,48.61H23.47a.33.33,0,0,1,0-.66h3.76a.33.33,0,1,1,0,.66Z"/><path class="cls-62" d="M19,58.94H16.44A2.46,2.46,0,0,1,14,56.48V25.53a2.46,2.46,0,0,1,2.46-2.46H19a2.46,2.46,0,0,0-2.46,2.46V56.48A2.46,2.46,0,0,0,19,58.94Z"/><rect class="cls-67" x="14.09" y="28.02" width="2.06" height="6.26" rx="1.03"/><path class="cls-7" d="M61.54,27.14h-43a.23.23,0,0,1-.23-.23.23.23,0,0,1,.23-.23h43a.23.23,0,0,1,.22.23A.22.22,0,0,1,61.54,27.14Z"/><path class="cls-7" d="M51.92,38.61H40.54a.28.28,0,0,1,0-.56H51.92a.28.28,0,0,1,0,.56Z"/><path class="cls-7" d="M51.92,35.93H40.54a.29.29,0,0,1-.28-.28.28.28,0,0,1,.28-.28H51.92a.27.27,0,0,1,.28.28A.28.28,0,0,1,51.92,35.93Z"/><path class="cls-7" d="M58,41.39H40.54a.29.29,0,0,1-.28-.28.28.28,0,0,1,.28-.28H58a.28.28,0,0,1,.28.28A.29.29,0,0,1,58,41.39Z"/><path class="cls-7" d="M21.06,25.82a.7.7,0,0,1,0-1.4.7.7,0,0,1,0,1.4Zm0-1.13a.43.43,0,0,0-.43.43.44.44,0,0,0,.43.43.43.43,0,0,0,.43-.43A.43.43,0,0,0,21.06,24.69Z"/><path class="cls-7" d="M23.49,25.82a.7.7,0,1,1,.7-.7A.7.7,0,0,1,23.49,25.82Zm0-1.13a.43.43,0,0,0-.43.43.43.43,0,1,0,.85,0A.42.42,0,0,0,23.49,24.69Z"/><path class="cls-7" d="M25.91,25.82a.7.7,0,0,1,0-1.4.7.7,0,0,1,0,1.4Zm0-1.13a.42.42,0,0,0-.42.43.43.43,0,1,0,.85,0A.43.43,0,0,0,25.91,24.69Z"/><circle class="cls-7" cx="9.66" cy="28.87" r="0.57"/><circle class="cls-7" cx="5.34" cy="47.56" r="0.57"/><path class="cls-7" d="M8.81,38l-.1,0a.25.25,0,0,1-.13-.32h0l1.34-3.16a.23.23,0,0,1,.32-.13.23.23,0,0,1,.13.32L9,37.83A.22.22,0,0,1,8.81,38Z"/><path class="cls-7" d="M10.59,36.46l-.1,0a.25.25,0,0,1-.13-.32h0l.72-1.69a.23.23,0,0,1,.32-.13.24.24,0,0,1,.13.32l-.72,1.69A.22.22,0,0,1,10.59,36.46Z"/><circle class="cls-67" cx="15.28" cy="36.16" r="0.97"/><path class="cls-7" d="M25.82,59.19H18.71a2.8,2.8,0,0,1-2.79-2.79v-31a2.8,2.8,0,0,1,2.79-2.79h7.11a.33.33,0,0,1,.33.33.33.33,0,0,1-.33.33H18.71a2.14,2.14,0,0,0-2.13,2.13v31a2.14,2.14,0,0,0,2.13,2.13h7.11a.33.33,0,0,1,.33.33A.33.33,0,0,1,25.82,59.19Z"/><path class="cls-7" d="M63.55,59.19h-47a2.8,2.8,0,0,1-2.79-2.79v-31a2.8,2.8,0,0,1,2.79-2.79h47a2.8,2.8,0,0,1,2.79,2.79v31A2.8,2.8,0,0,1,63.55,59.19Zm-47-35.88a2.14,2.14,0,0,0-2.13,2.13v31a2.14,2.14,0,0,0,2.13,2.13h47a2.14,2.14,0,0,0,2.13-2.13v-31a2.14,2.14,0,0,0-2.13-2.13Z"/><rect class="cls-67" x="0.47" y="51.9" width="1.99" height="8.14" rx="0.99"/><path class="cls-7" d="M44.65,71.46H3.59A3.59,3.59,0,0,1,0,67.87V32a3.59,3.59,0,0,1,3.59-3.59H7.9a.44.44,0,0,1,0,.88H3.59A2.71,2.71,0,0,0,.88,32V67.87a2.71,2.71,0,0,0,2.71,2.71H44.65a.44.44,0,0,1,.44.44A.43.43,0,0,1,44.65,71.46Z"/><path class="cls-7" d="M5.66,71.3a3.43,3.43,0,0,1-3.43-3.43V32a3.43,3.43,0,0,1,3.43-3.43.29.29,0,0,1,.28.28.28.28,0,0,1-.28.28A2.87,2.87,0,0,0,2.79,32V67.87a2.86,2.86,0,0,0,2.87,2.87.29.29,0,0,1,.28.28A.28.28,0,0,1,5.66,71.3Z"/><rect class="cls-68" x="20.55" y="31.28" width="16.38" height="14" rx="0.9"/><path class="cls-63" d="M36.72,32.12v12.2a.91.91,0,0,1-.91.91H26.94A23.41,23.41,0,0,0,36.5,31.56.8.8,0,0,1,36.72,32.12Z"/><path class="cls-7" d="M36,45.63H21.45a1.18,1.18,0,0,1-1.18-1.19V32.26a1.18,1.18,0,0,1,1.18-1.19H36a1.19,1.19,0,0,1,1.19,1.19V44.44A1.19,1.19,0,0,1,36,45.63Zm-14.57-14a.63.63,0,0,0-.62.63V44.44a.63.63,0,0,0,.62.63H36a.63.63,0,0,0,.63-.63V32.26a.63.63,0,0,0-.63-.63Z"/></g></g></svg>